<svg width="18" height="18" viewBox="0 0 18 18" fill="none" xmlns="http://www.w3.org/2000/svg">
<path fill-rule="evenodd" clip-rule="evenodd" d="M10.1464 4.89645C9.95118 5.09171 9.95118 5.40829 10.1464 5.60355L13.0429 8.5H3.75C3.47386 8.5 3.25 8.72386 3.25 9C3.25 9.27614 3.47386 9.5 3.75 9.5H13.0429L10.1464 12.3964C9.95118 12.5917 9.95118 12.9083 10.1464 13.1036C10.3417 13.2988 10.6583 13.2988 10.8536 13.1036L14.6014 9.35567L14.6036 9.35355C14.6043 9.35285 14.605 9.35214 14.6057 9.35143C14.6526 9.30398 14.688 9.24949 14.7121 9.19139C14.735 9.13612 14.7483 9.07585 14.7498 9.01267C14.7499 9.00846 14.75 9.00424 14.75 9C14.75 8.93221 14.7365 8.86756 14.7121 8.80861C14.6877 8.74964 14.6515 8.69439 14.6036 8.64645L10.8536 4.89645C10.6583 4.70118 10.3417 4.70118 10.1464 4.89645Z" fill="#2F3A4C"/>
</svg>
