<svg width="116" height="116" viewBox="0 0 116 116" fill="none" xmlns="http://www.w3.org/2000/svg">
<path d="M109.252 31.9569C132.263 76.2719 91.8144 126.273 43.5948 114.067C21.949 108.684 4.54901 89.919 0.947707 67.8941C-3.14641 45.983 6.74771 22.4418 25.2471 10.0457C50.6078 -7.39216 85.749 -1.59216 103.907 23.3516C104.021 23.4654 103.983 23.6549 103.831 23.7686C103.718 23.8823 103.528 23.8444 103.414 23.6928C100.912 20.4706 98.0693 17.5516 94.9608 14.9359C89.8431 10.5765 83.8536 7.1647 77.5229 4.85228C45.3006 -6.82353 9.93202 12.5856 2.88104 46.2863C-5.07974 84.0431 27.0287 118.805 65.3163 113.612C94.847 109.897 116.796 82.6405 114.37 52.9961C113.839 45.8314 111.944 38.7425 108.797 32.2222C108.722 32.1085 108.797 31.9569 108.911 31.881C109.025 31.8052 109.176 31.8431 109.252 31.9569Z" fill="#101C2D"/>
</svg>
