<svg width="116" height="116" viewBox="0 0 116 116" fill="none" xmlns="http://www.w3.org/2000/svg">
<path d="M89.502 105.537C89.2367 105.727 88.9334 105.916 88.668 106.106C88.3648 106.295 88.0994 106.485 87.7961 106.637C87.5308 106.788 87.3033 106.94 87.038 107.091C87.0001 107.129 86.9622 107.129 86.9242 107.167C86.0524 107.698 85.1425 108.191 84.2327 108.646C83.9674 108.797 83.6641 108.949 83.3988 109.063C83.3988 109.063 83.3608 109.101 83.3229 109.101C83.0197 109.252 82.7164 109.404 82.4131 109.555C81.8066 109.859 81.1622 110.124 80.5556 110.389C80.2523 110.541 79.9112 110.655 79.6079 110.769C79.3046 110.882 78.9635 111.034 78.6602 111.148C78.3569 111.261 78.0157 111.413 77.7125 111.527C77.7125 111.527 77.7125 111.527 77.6746 111.527C77.3713 111.64 77.0301 111.754 76.7269 111.868C76.0445 112.095 75.3242 112.323 74.6419 112.55C74.4144 112.626 74.1491 112.702 73.9216 112.778C73.2014 113.005 72.4811 113.195 71.7608 113.346C71.4955 113.422 71.2301 113.46 70.9269 113.536C70.2445 113.688 69.5242 113.839 68.8419 113.991C68.6903 114.029 68.5765 114.029 68.4249 114.067C68.1974 114.104 67.9321 114.142 67.7046 114.18C67.3635 114.218 67.0602 114.294 66.719 114.332C66.5674 114.37 66.4157 114.37 66.2641 114.408C66.0746 114.446 65.8471 114.484 65.6197 114.484C65.0131 114.559 64.3687 114.635 63.7622 114.711C63.5726 114.749 63.3452 114.749 63.1556 114.787H63.1177C62.8524 114.825 62.587 114.825 62.3216 114.863C62.0563 114.901 61.7909 114.901 61.5256 114.901C61.3739 114.901 61.1844 114.938 61.0327 114.938C60.7295 114.938 60.4641 114.976 60.1988 114.976C59.8197 114.976 59.4785 115.014 59.0994 115.014C58.7203 115.014 58.3792 115.014 58.0001 115.014C57.7347 115.014 57.4693 115.014 57.204 115.014C41.2066 114.787 26.8393 108.001 16.5661 97.2352C16.5661 97.2352 16.5661 97.1973 16.5282 97.1973C15.3909 96.1738 16.3765 90.715 20.9635 87.2653C26.7256 82.9058 40.5242 80.1764 40.5242 80.1764C40.5242 80.1764 45.8693 79.3045 65.6955 83.4365C77.2955 85.8627 86.1282 89.3882 91.0563 98.9411C92.0798 100.912 93.1033 103.945 89.502 105.537Z" fill="white"/>
<path d="M65.8092 83.0196C73.0877 84.498 80.8589 86.0902 86.8484 90.9046C88.8576 92.5346 90.1844 94.9229 91.2837 97.2353C91.8145 98.3725 92.3452 99.5477 92.7622 100.799C92.9896 101.633 93.3308 102.58 93.1413 103.566C93.1033 103.831 92.8759 104.173 92.6864 104.362C91.8145 105.234 90.8667 105.765 89.919 106.447C84.3465 110.314 77.9399 113.043 71.306 114.484C56.5216 117.706 40.5243 115.204 27.5216 107.433C23.2001 104.817 19.2197 101.633 15.8079 97.8797C15.4288 97.4248 15.4288 96.6667 15.4288 96.1738C15.4667 95.0366 15.77 93.9372 16.1491 92.9137C17.0589 90.5634 18.2341 88.2131 20.2432 86.583C21.6837 85.5974 23.238 84.7634 24.8301 84.081C29.8341 81.9582 35.1033 80.4797 40.5243 79.8732C40.9792 79.8353 41.055 80.4797 40.6001 80.5555C35.4066 81.617 30.2511 83.2091 25.4367 85.3699C23.6929 86.2418 21.8354 87 20.4328 88.3647C19.106 89.8052 18.1582 91.5869 17.4001 93.4065C16.9073 94.5059 16.5661 96.2497 16.7177 97.1216C19.106 99.9647 21.9112 102.467 24.9439 104.627C41.5478 116.227 66.7569 116.986 84.4223 107.319C86.0145 106.447 87.5687 105.461 89.0471 104.438C89.7674 103.945 90.5256 103.528 91.0942 102.959C91.1321 102.922 91.0942 102.959 91.0942 102.997C91.0942 103.035 91.0563 103.073 91.0563 103.073C91.0942 102.618 90.9426 102.012 90.753 101.405C90.0707 99.2065 88.9713 96.8941 87.7962 94.885C85.9386 91.8902 82.7922 89.9948 79.6079 88.4784C77.4092 87.4549 75.0968 86.6588 72.7465 85.9006C70.3962 85.1425 68.0079 84.498 65.6197 83.9294C65.0131 83.7778 65.2027 82.9059 65.8092 83.0196Z" fill="#101C2D"/>
</svg>
