<svg width="116" height="116" viewBox="0 0 116 116" fill="none" xmlns="http://www.w3.org/2000/svg">
<path d="M60.1988 55.0432C59.289 55.0053 58.6066 54.2471 58.6825 53.3373L58.7204 52.2759C58.7583 51.3661 59.5164 50.6837 60.4262 50.7595C61.336 50.7974 62.0184 51.5556 61.9426 52.4654L61.9047 53.5269C61.8668 54.3988 61.1086 55.0811 60.1988 55.0432Z" fill="#101C2D"/>
<path d="M76.1581 55.6119C75.3242 55.574 74.6797 54.8537 74.7176 54.0197L74.7555 53.0341C74.7934 52.2001 75.5137 51.5557 76.3477 51.5936C77.1817 51.6315 77.8261 52.3517 77.7882 53.1857L77.7503 54.1713C77.7124 55.0053 76.9921 55.6498 76.1581 55.6119Z" fill="#101C2D"/>
<path d="M63.6105 52.9961C62.3596 52.1622 60.9949 51.5935 59.4785 51.8968C58.9857 51.9726 58.4929 52.1242 58.1896 52.4654C58.0759 52.6171 57.8105 52.5792 57.8105 52.3517C57.8485 51.5935 58.4929 51.1007 59.0994 50.7975C60.2746 50.1909 61.9047 50.3046 62.9661 51.1007C63.3452 51.3282 64.6341 52.7308 63.9517 53.0341C63.8001 53.1099 63.7243 53.072 63.6105 52.9961Z" fill="#101C2D"/>
<path d="M74.4524 53.1857C74.4524 51.5935 76.4236 51.0249 77.6367 51.5935C78.3191 51.8968 78.8119 52.5033 79.0014 53.2236C79.0772 53.451 78.7361 53.6406 78.5844 53.451C77.94 52.6929 76.8406 52.3138 75.9687 52.7687C75.7034 52.9203 75.6655 53.034 75.5896 53.1857C75.5896 53.9439 74.4903 53.9059 74.4524 53.1857Z" fill="#101C2D"/>
<path d="M65.4302 46.7412C66.2262 47.0066 67.0223 46.2863 66.8707 45.4144C66.7949 44.9595 66.6053 44.5046 66.2262 44.1634C65.089 43.1399 60.3883 42.2301 57.5452 43.5569C55.0432 44.77 61.7909 45.5281 65.4302 46.7412Z" fill="#101C2D"/>
<path d="M76.7649 47.3478C76.1205 47.5752 75.4381 46.8929 75.5519 46.0968C75.5898 45.6798 75.7414 45.2628 76.0447 44.9595C76.9545 44.0497 80.063 43.3295 82.0342 44.7321C83.7401 45.9073 79.7218 46.2484 76.7649 47.3478Z" fill="#101C2D"/>
</svg>
