<svg width="116" height="116" viewBox="0 0 116 116" fill="none" xmlns="http://www.w3.org/2000/svg">
<path d="M60.1988 55.0431C59.289 55.0052 58.6066 54.247 58.6825 53.3372L58.7204 52.2758C58.7583 51.366 59.5164 50.6836 60.4262 50.7594C61.336 50.7973 62.0184 51.5555 61.9426 52.4653L61.9047 53.5267C61.8668 54.3986 61.1086 55.081 60.1988 55.0431Z" fill="#101C2D"/>
<path d="M76.1581 55.6118C75.3242 55.5739 74.6797 54.8536 74.7176 54.0197L74.7555 53.034C74.7934 52.2 75.5137 51.5556 76.3477 51.5935C77.1817 51.6314 77.8261 52.3517 77.7882 53.1857L77.7503 54.1713C77.7124 55.0053 76.9921 55.6497 76.1581 55.6118Z" fill="#101C2D"/>
<path d="M63.6105 52.996C62.3596 52.162 60.9949 51.5934 59.4785 51.8967C58.9857 51.9725 58.4929 52.1241 58.1896 52.4653C58.0759 52.6169 57.8105 52.579 57.8105 52.3516C57.8485 51.5934 58.4929 51.1006 59.0994 50.7973C60.2746 50.1908 61.9047 50.3045 62.9661 51.1006C63.3452 51.328 64.6341 52.7307 63.9517 53.0339C63.8001 53.1097 63.7243 53.0718 63.6105 52.996Z" fill="#101C2D"/>
<path d="M74.4524 53.1856C74.4524 51.5935 76.4236 51.0248 77.6367 51.5935C78.3191 51.8967 78.8119 52.5033 79.0014 53.2235C79.0772 53.451 78.7361 53.6405 78.5844 53.451C77.94 52.6928 76.8406 52.3137 75.9687 52.7686C75.7034 52.9203 75.6655 53.034 75.5896 53.1856C75.5896 53.9438 74.4903 53.9059 74.4524 53.1856Z" fill="#101C2D"/>
<path d="M65.4302 46.7412C66.2262 47.0065 67.0223 46.2863 66.8707 45.4144C66.7949 44.9595 66.6053 44.5046 66.2262 44.1634C65.089 43.1398 60.3883 42.23 57.5452 43.5568C55.0432 44.7699 61.7909 45.5281 65.4302 46.7412Z" fill="#101C2D"/>
<path d="M76.7649 47.3477C76.1205 47.5751 75.4381 46.8927 75.5519 46.0967C75.5898 45.6797 75.7414 45.2627 76.0447 44.9594C76.9545 44.0496 80.063 43.3293 82.0342 44.732C83.7401 45.9071 79.7218 46.2483 76.7649 47.3477Z" fill="#101C2D"/>
</svg>
