<svg width="116" height="116" viewBox="0 0 116 116" fill="none" xmlns="http://www.w3.org/2000/svg">
<path d="M85.9387 31.3125C88.6302 21.57 77.7125 15.4667 74.7936 19.8641C72.6707 23.0484 64.4825 20.5844 52.0485 20.3569C39.6145 20.0916 36.2785 26.6876 36.1269 33.7765C36.1269 33.7765 30.6681 36.6576 31.0092 46.8171C31.3504 57.3556 42.1923 65.8471 43.5191 71.1922C43.5191 71.1922 43.6707 71.8746 42.2302 64.5582C33.9661 60.5778 35.7099 50.7595 40.1452 50.1909C43.5191 49.7739 45.3007 51.7452 46.1347 53.3373C46.4759 53.7922 49.6981 57.7347 49.774 44.8458C49.8119 36.051 58.3792 33.17 68.1217 36.7334C73.2014 38.5909 78.5465 39.9556 82.2236 37.302C82.8302 39.0458 83.4746 40.9791 82.9818 43.3295C84.4602 41.9648 85.7112 39.9556 86.0524 37.4916C86.2798 36.0131 85.9007 34.7242 85.0668 33.587C85.4079 32.9425 85.7112 32.1465 85.9387 31.3125Z" fill="#101C2D"/>
</svg>
