<svg width="116" height="116" viewBox="0 0 116 116" fill="none" xmlns="http://www.w3.org/2000/svg">
<path d="M87.7984 73.808C83.4011 62.5871 83.9697 59.0616 85.0311 49.6224C87.154 31.0472 80.4442 26.5361 76.9187 24.7544C61.9069 17.1348 44.6965 20.8498 38.2141 31.3126C34.1579 37.8328 34.0063 43.0642 31.7318 50.5701C27.8272 63.4211 18.4259 69.1073 21.3449 82.2616C25.3632 95.2263 51.0651 100.95 50.5723 87.455C50.269 79.3047 44.1658 78.2054 44.052 66.9465C44.052 66.1884 44.0899 65.4681 44.1658 64.7858C33.703 61.4877 35.371 50.2668 40.1096 49.6603C43.4076 49.2433 45.1514 51.1008 46.0233 52.655C46.0991 52.8825 46.2128 53.072 46.3266 53.2995C47.0847 54.5884 56.0311 52.1622 62.8547 47.9544C66.835 45.4903 73.052 41.2446 74.7579 36.5818C74.8337 36.3923 76.0468 42.2302 81.7331 49.8119C81.4677 54.323 82.605 65.5818 76.8429 74.8694C72.673 81.655 67.4416 82.2616 67.4416 82.2616C67.4416 86.7727 75.4403 86.5452 78.7762 87.3034C82.9462 88.2132 87.0782 90.7152 87.0782 90.7152C87.0782 90.7152 91.8547 84.157 87.7984 73.808Z" fill="#101C2D"/>
</svg>
