<svg width="116" height="116" viewBox="0 0 116 116" fill="none" xmlns="http://www.w3.org/2000/svg">
<path d="M69.3723 93.1032C68.5762 97.0078 63.4206 99.3581 54.7396 95.8326C45.7174 92.1934 41.8128 83.5124 40.8272 80.9346C46.1723 70.9268 42.4572 63.9895 42.4572 63.9895C54.7775 62.9281 65.5435 77.3333 65.5435 77.3333L67.2115 84.4601C67.3631 85.0666 67.6664 85.5973 68.1213 85.9764C68.9174 87.379 69.8651 90.6013 69.3723 93.1032Z" fill="white"/>
<path d="M40.6378 81.0483C41.3581 79.949 41.813 78.6601 42.1162 77.4091C42.6849 74.7934 42.8744 72.1398 42.9123 69.4862V68.5006C42.7986 67.515 42.4574 66.4915 42.0783 65.5816C41.5855 64.3686 43.3672 63.6104 43.9358 64.8235C44.0117 64.9751 44.0117 65.2405 44.0117 65.3921C44.1254 70.5477 44.3528 77.1816 41.0927 81.4653C40.8652 81.6928 40.4103 81.3516 40.6378 81.0483Z" fill="#101C2D"/>
<path d="M65.9605 77.2575C66.5292 77.5987 66.7187 78.0536 66.7945 78.5085C67.022 79.4183 66.9462 80.4039 67.1736 81.3516C67.3632 82.2614 67.9318 83.1333 68.0834 84.081C68.273 85.0666 68.8416 87.1516 69.069 88.1751C69.1449 88.4026 68.9932 88.6679 68.7279 88.7058C68.5762 88.7438 68.4625 88.7058 68.3488 88.63C67.856 88.213 67.6285 87.796 67.3253 87.2653C66.8324 86.3555 66.4913 85.5215 66.188 84.498C65.9226 83.5882 66.0364 82.6026 65.8089 81.6549C65.6194 80.7451 65.0886 79.8732 64.8991 78.9255C64.7854 78.4705 64.7475 77.9777 65.0886 77.4091C65.3161 77.1817 65.6952 77.1058 65.9605 77.2575Z" fill="#101C2D"/>
<path d="M68.6901 87.2653C61.4496 86.8862 55.5358 84.6117 49.7737 74.3385C54.626 78.6222 60.3502 80.2522 66.3777 81.0104L67.1737 84.498C67.3254 85.1045 68.2352 86.8862 68.6901 87.2653Z" fill="#101C2D"/>
<path d="M68.387 85.8627C69.6759 88.2889 70.434 91.3216 69.6379 94.0131C69.0314 95.9085 67.2876 97.3111 65.3922 97.8418C60.9948 99.017 55.9151 97.1595 52.0105 95.0745C47.1961 92.383 43.6327 87.8719 41.3582 82.9438C41.2066 82.5647 41.7373 82.2614 41.9647 82.6405C42.7608 84.2327 43.6706 85.7869 44.6942 87.1895C45.7177 88.6301 46.8928 89.9569 48.2196 91.132C52.0863 94.6196 57.3177 96.7804 62.5491 96.7804C67.9321 96.6288 69.9791 93.7856 68.7281 88.5542C68.5386 87.7203 68.2353 86.8484 67.8183 86.1281C67.5909 85.8248 68.1595 85.4837 68.387 85.8627Z" fill="#101C2D"/>
<path d="M83.0574 40.3346C83.7397 43.5189 81.4652 46.9306 81.4652 55.4221C81.4652 64.1032 79.8731 73.5424 73.3149 80.1006C67.6665 85.7489 61.1842 85.5215 53.5646 79.5698C52.5031 78.7359 48.7881 75.9306 47.8404 74.9829C46.7411 73.8836 46.1345 73.0875 45.6038 72.2535C45.1489 71.4953 45.2626 67.0979 44.6182 66.0744C42.9502 63.3071 42.609 66.3019 40.4482 63.8757C37.4535 60.6156 33.8522 54.0574 35.6339 42.4574C38.5149 23.6548 53.4129 21.4561 64.4443 23.5411C75.5515 25.664 81.2378 31.9568 83.0574 40.3346Z" fill="white"/>
<path d="M42.3437 67.2496C41.4718 65.8091 40.3724 64.5202 39.3489 63.1934C38.3254 61.7908 37.4914 60.3124 36.809 58.7202C32.9424 49.3568 33.511 37.1124 40.3724 29.2274C45.0731 23.8444 52.5031 22.0627 59.3267 22.4418C66.1502 22.8588 73.2391 24.6026 78.2809 29.5307C81.1999 32.3738 83.0574 36.1646 83.8914 40.1071C84.1567 41.3581 83.9672 42.7228 83.6639 43.898C82.792 47.196 81.958 50.3424 81.8822 53.7542C81.9201 58.8339 81.7685 64.0274 80.2901 68.9176C79.2286 72.1777 77.9776 75.4378 76.0064 78.281C73.9594 81.162 70.8888 83.4744 67.3633 84.1568C60.2744 85.5973 53.6404 81.1241 48.9397 76.2718C48.7502 76.0444 49.0156 75.779 49.243 75.9307C51.9345 77.9777 54.7018 79.8731 57.6966 81.162C66.3397 85.1424 73.5044 81.4653 77.2953 73.1254C80.4796 67.0601 81.3894 60.5019 81.1241 53.7163C81.1241 52.0104 81.1999 50.3045 81.4273 48.5986C81.6548 46.1346 82.4888 43.6705 82.4509 41.2444C81.8064 37.3019 79.9868 33.511 77.2574 30.5921C70.775 23.7307 58.341 21.7215 49.6221 24.83C39.3489 28.4692 36.5816 38.8182 36.0129 48.7124C35.6339 54.6261 37.3777 60.4261 41.8509 64.4823L43.6326 66.3398C44.2391 67.1738 42.9502 68.1594 42.3437 67.2496Z" fill="#101C2D"/>
<path d="M46.8169 55.1947C46.8169 55.1947 45.6417 49.5085 40.1071 50.1908C35.3306 50.7974 33.6626 62.2457 44.5044 65.43" fill="white"/>
<path d="M44.0116 60.464C43.1397 59.9712 42.5332 59.1372 42.4953 58.1137C42.5332 57.3555 42.6469 56.4836 42.4574 55.7254C42.3437 55.0052 41.5855 54.8156 41.0169 54.8535C40.4103 54.9673 40.0313 55.7254 39.9175 56.332C39.9175 56.3699 39.8796 56.4836 39.8796 56.5215C39.8417 56.7111 39.5384 56.7111 39.4626 56.5215C38.9698 55.0431 40.0692 53.413 41.6613 53.6026C43.8979 53.7542 44.2012 56.1045 43.7842 57.8862C43.5567 58.6444 43.86 59.3267 44.277 59.9712L44.3528 60.0849C44.5424 60.3124 44.2391 60.6156 44.0116 60.464Z" fill="#101C2D"/>
<path d="M74.3384 51.1764C74.9071 53.8679 75.9685 56.3699 77.2953 58.7202C78.4705 61.6012 75.4378 64.3306 72.7463 64.2169C72.443 64.2169 72.4051 63.7999 72.6705 63.7241C74.3763 63.1934 75.9306 62.0561 76.196 60.3123C76.3097 59.7816 76.158 59.3267 75.8927 58.8718C74.6417 56.5215 73.8835 53.83 74.0731 51.1764C74.0731 50.9869 74.3384 50.9869 74.3384 51.1764Z" fill="#101C2D"/>
<path d="M46.6275 55.2326C45.7556 52.996 43.8602 50.8731 41.3203 50.911C41.0928 50.8731 40.7138 50.9489 40.4863 50.9489C39.8419 50.9868 39.3111 51.2143 38.8183 51.6692C36.3922 54.0953 36.8092 58.379 38.7804 61.0705C39.4628 62.0182 40.3347 62.8522 41.3203 63.5345C42.3059 64.2169 43.4053 64.7476 44.5804 65.2025C44.8458 65.2783 44.7321 65.6953 44.4667 65.6574C41.9268 65.1267 39.5007 63.8757 37.8327 61.7907C35.2549 58.6822 34.7242 53.4888 37.7948 50.4561C38.4772 49.8496 39.4249 49.3947 40.3726 49.3947C40.6758 49.3947 41.1308 49.3188 41.434 49.3947C43.0262 49.4705 44.5425 50.2666 45.5281 51.5175C46.4 52.579 46.8928 53.8679 47.0445 55.1568C47.0445 55.3842 46.7033 55.46 46.6275 55.2326Z" fill="#101C2D"/>
</svg>
