<svg width="116" height="116" viewBox="0 0 116 116" fill="none" xmlns="http://www.w3.org/2000/svg">
<path d="M69.3723 93.1032C68.5762 97.0078 63.4206 99.3581 54.7396 95.8326C45.7174 92.1934 41.8128 83.5124 40.8272 80.9346C46.1723 70.9268 42.4572 63.9895 42.4572 63.9895C54.7775 62.9281 65.5435 77.3333 65.5435 77.3333L67.2115 84.4601C67.3631 85.0666 67.6664 85.5973 68.1213 85.9764C68.9174 87.379 69.8651 90.6013 69.3723 93.1032Z" fill="white"/>
<path d="M40.6378 81.0483C41.3581 79.949 41.813 78.6601 42.1162 77.4091C42.6849 74.7934 42.8744 72.1398 42.9123 69.4862V68.5006C42.7986 67.515 42.4574 66.4915 42.0783 65.5816C41.5855 64.3686 43.3672 63.6104 43.9358 64.8235C44.0117 64.9751 44.0117 65.2405 44.0117 65.3921C44.1254 70.5477 44.3528 77.1816 41.0927 81.4653C40.8652 81.6928 40.4103 81.3516 40.6378 81.0483Z" fill="#101C2D"/>
<path d="M65.9605 77.2575C66.5292 77.5987 66.7187 78.0536 66.7945 78.5085C67.022 79.4183 66.9462 80.4039 67.1736 81.3516C67.3632 82.2614 67.9318 83.1333 68.0834 84.081C68.273 85.0666 68.8416 87.1516 69.069 88.1751C69.1449 88.4026 68.9932 88.6679 68.7279 88.7058C68.5762 88.7438 68.4625 88.7058 68.3488 88.63C67.856 88.213 67.6285 87.796 67.3253 87.2653C66.8324 86.3555 66.4913 85.5215 66.188 84.498C65.9226 83.5882 66.0364 82.6026 65.8089 81.6549C65.6194 80.7451 65.0886 79.8732 64.8991 78.9255C64.7854 78.4705 64.7475 77.9777 65.0886 77.4091C65.3161 77.1817 65.6952 77.1058 65.9605 77.2575Z" fill="#101C2D"/>
<path d="M68.6901 87.2653C61.4496 86.8862 55.5358 84.6117 49.7737 74.3385C54.626 78.6222 60.3502 80.2522 66.3777 81.0104L67.1737 84.498C67.3254 85.1045 68.2352 86.8862 68.6901 87.2653Z" fill="#101C2D"/>
<path d="M68.387 85.8627C69.6759 88.2889 70.434 91.3216 69.6379 94.0131C69.0314 95.9085 67.2876 97.3111 65.3922 97.8418C60.9948 99.017 55.9151 97.1595 52.0105 95.0745C47.1961 92.383 43.6327 87.8719 41.3582 82.9438C41.2066 82.5647 41.7373 82.2614 41.9647 82.6405C42.7608 84.2327 43.6706 85.7869 44.6942 87.1895C45.7177 88.6301 46.8928 89.9569 48.2196 91.132C52.0863 94.6196 57.3177 96.7804 62.5491 96.7804C67.9321 96.6288 69.9791 93.7856 68.7281 88.5542C68.5386 87.7203 68.2353 86.8484 67.8183 86.1281C67.5909 85.8248 68.1595 85.4837 68.387 85.8627Z" fill="#101C2D"/>
<path d="M83.0574 40.3347C83.7397 43.519 83.209 45.6419 82.9057 54.4366C82.6025 63.0798 80.1005 75.2863 77.0299 78.3569C74.6796 80.6693 67.1358 82.4889 60.426 80.783C57.0142 79.9111 54.1332 77.9399 51.7829 76.5373C48.826 74.7556 46.2482 69.2588 44.1253 65.7334C42.4574 62.966 42.609 66.302 40.4482 63.9137C37.4534 60.6536 33.8521 54.0954 35.6338 42.4954C38.5149 23.6928 53.4129 21.4941 64.4443 23.5791C75.5515 25.6641 81.2378 31.9569 83.0574 40.3347Z" fill="white"/>
<path d="M42.3438 67.2497C41.4719 65.8091 40.3347 64.5203 39.3111 63.1556C37.7948 61.0706 36.6575 58.6824 35.8994 56.2183C32.6013 45.6797 34.6105 31.881 44.5804 25.664C53.6406 19.902 71.2301 21.9869 78.5843 29.8719C81.3517 32.715 83.1334 36.4301 83.8915 40.2967C83.9294 40.5242 84.0432 40.9412 84.0811 41.1686C84.119 41.3582 84.2327 41.5856 84.1948 41.8131C84.119 42.6471 83.9673 43.481 83.8915 44.315C83.3229 49.3569 83.4745 54.5124 82.8301 59.5542C82.2615 64.8614 81.5033 70.1686 79.9111 75.2863C79.4183 76.8405 78.4706 78.2431 77.2196 79.2667C74.4144 81.617 70.7373 82.4131 67.2118 82.5647C60.1608 82.9059 52.9961 80.4039 48.902 74.4523C48.7504 74.2248 49.0536 73.9595 49.2432 74.1869C52.6549 77.864 57.2798 80.2144 62.2079 80.7451C67.6667 81.3895 75.8928 80.8967 78.2811 75.0588C81.0484 66.7948 82.4889 58.0379 82.6406 49.3569C82.6406 47.234 82.5268 45.1111 82.5268 42.9503C82.5268 42.685 82.5647 42.0784 82.5647 41.8131C82.5647 41.7752 82.5647 41.8131 82.5647 41.8131C82.5647 41.851 82.5647 41.851 82.5647 41.8131C82.2615 41.0549 82.1477 40.2209 81.9203 39.4627C81.0863 36.3163 79.57 33.3216 77.4092 30.9333C70.2445 22.8967 54.285 20.8876 45.3386 26.915C38.2497 31.6157 36.3543 40.6379 35.8615 48.5987C35.4445 54.5503 37.1883 60.3882 41.6994 64.4823L43.4811 66.3399C44.2392 67.1739 42.9504 68.1595 42.3438 67.2497Z" fill="#101C2D"/>
<path d="M46.8171 55.1947C46.8171 55.1947 45.642 49.5084 40.1073 50.1908C35.3309 50.7973 33.6629 62.2457 44.5047 65.43" fill="white"/>
<path d="M44.0116 60.4641C43.1397 59.9713 42.5332 59.1373 42.4953 58.1137C42.5332 57.3556 42.6469 56.4837 42.4574 55.7255C42.3437 55.0052 41.5855 54.8157 41.0169 54.8536C40.4103 54.9673 40.0313 55.7255 39.9175 56.332C39.9175 56.3699 39.8796 56.4837 39.8796 56.5216C39.8417 56.7111 39.5384 56.7111 39.4626 56.5216C38.9698 55.0432 40.0692 53.4131 41.6613 53.6026C43.8979 53.7543 44.2012 56.1046 43.7842 57.8863C43.5567 58.6445 43.86 59.3268 44.277 59.9713L44.3528 60.085C44.5424 60.3124 44.2391 60.6157 44.0116 60.4641Z" fill="#101C2D"/>
<path d="M74.3388 51.1765C74.9074 53.868 75.9688 56.3699 77.2956 58.7202C78.4708 61.6013 75.4381 64.3307 72.7466 64.217C72.4433 64.217 72.4054 63.8 72.6708 63.7242C74.3767 63.1935 75.9309 62.0562 76.1963 60.3124C76.31 59.7817 76.1584 59.3268 75.893 58.8719C74.642 56.5216 73.8839 53.8301 74.0734 51.1765C74.0734 50.9869 74.3388 50.9869 74.3388 51.1765Z" fill="#101C2D"/>
<path d="M46.6275 55.2327C45.7556 52.9961 43.8602 50.8732 41.3203 50.9111C41.0928 50.8732 40.7138 50.949 40.4863 50.949C39.8419 50.9869 39.3111 51.2144 38.8183 51.6693C36.3922 54.0954 36.8092 58.3791 38.7804 61.0706C39.4628 62.0183 40.3347 62.8523 41.3203 63.5347C42.3059 64.217 43.4053 64.7477 44.5804 65.2026C44.8458 65.2784 44.7321 65.6954 44.4667 65.6575C41.9268 65.1268 39.5007 63.8758 37.8327 61.7909C35.2549 58.6824 34.7242 53.4889 37.7948 50.4562C38.4772 49.8497 39.4249 49.3948 40.3726 49.3948C40.6758 49.3948 41.1308 49.319 41.434 49.3948C43.0262 49.4706 44.5425 50.2667 45.5281 51.5177C46.4 52.5791 46.8928 53.868 47.0445 55.1569C47.0445 55.3843 46.7033 55.4601 46.6275 55.2327Z" fill="#101C2D"/>
</svg>
