<svg width="24" height="24" viewBox="0 0 24 24" fill="none" xmlns="http://www.w3.org/2000/svg">
<path d="M6.16833 15.2528C6.3636 15.0575 6.3636 14.7409 6.16833 14.5457C5.97307 14.3504 5.65649 14.3504 5.46123 14.5457L6.16833 15.2528ZM4.17224 15.8346C3.97698 16.0299 3.97698 16.3465 4.17224 16.5418C4.36751 16.737 4.68409 16.737 4.87935 16.5418L4.17224 15.8346ZM7.43633 16.5208C7.63159 16.3255 7.63159 16.0089 7.43633 15.8137C7.24107 15.6184 6.92449 15.6184 6.72923 15.8137L7.43633 16.5208ZM3.73459 18.8083C3.53933 19.0036 3.53933 19.3201 3.73459 19.5154C3.92985 19.7107 4.24643 19.7107 4.4417 19.5154L3.73459 18.8083ZM8.70433 17.7888C8.89959 17.5935 8.89959 17.2769 8.70433 17.0817C8.50907 16.8864 8.19249 16.8864 7.99723 17.0817L8.70433 17.7888ZM6.64829 18.4306C6.45303 18.6259 6.45303 18.9424 6.64829 19.1377C6.84355 19.333 7.16013 19.333 7.3554 19.1377L6.64829 18.4306ZM14.0313 7.57599V7.07599V7.57599ZM19.3791 3.87092L19.8638 3.74813C19.8185 3.56941 19.6785 3.43011 19.4996 3.38566L19.3791 3.87092ZM6.76203 13.7211L6.32104 13.4855C6.21726 13.6797 6.25277 13.919 6.40848 14.0747L6.76203 13.7211ZM9.53484 16.494L9.18129 16.8475C9.33707 17.0033 9.57646 17.0388 9.77071 16.9348L9.53484 16.494ZM8.25251 9.21441C8.52662 9.18094 8.72169 8.93159 8.68822 8.65749C8.65474 8.38338 8.4054 8.18831 8.13129 8.22179L8.25251 9.21441ZM3 12.2883L2.58503 12.0094C2.46005 12.1953 2.47401 12.4417 2.6192 12.6123C2.76438 12.7829 3.00535 12.8362 3.20889 12.7426L3 12.2883ZM5.88802 12.6359C6.15949 12.6865 6.42058 12.5075 6.47118 12.236C6.52179 11.9645 6.34274 11.7035 6.07128 11.6529L5.88802 12.6359ZM15.0343 15.1176C15.0672 14.8434 14.8716 14.5945 14.5974 14.5616C14.3232 14.5288 14.0743 14.7244 14.0414 14.9986L15.0343 15.1176ZM10.9707 20.25L10.5157 20.0426C10.423 20.2462 10.4767 20.4866 10.6473 20.6313C10.818 20.776 11.064 20.7898 11.2496 20.665L10.9707 20.25ZM11.6062 17.1793C11.556 16.9078 11.2951 16.7284 11.0236 16.7787C10.7521 16.829 10.5727 17.0898 10.623 17.3614L11.6062 17.1793ZM5.46123 14.5457L4.17224 15.8346L4.87935 16.5418L6.16833 15.2528L5.46123 14.5457ZM6.72923 15.8137L3.73459 18.8083L4.4417 19.5154L7.43633 16.5208L6.72923 15.8137ZM7.99723 17.0817L6.64829 18.4306L7.3554 19.1377L8.70433 17.7888L7.99723 17.0817ZM14.0313 8.07599C14.2573 8.07599 14.4782 8.14301 14.6661 8.26857L15.2217 7.4371C14.8694 7.20166 14.4551 7.07599 14.0313 7.07599V8.07599ZM14.6661 8.26857C14.8541 8.39413 15.0005 8.5726 15.087 8.7814L16.0109 8.39872C15.8487 8.00719 15.5741 7.67255 15.2217 7.4371L14.6661 8.26857ZM15.087 8.7814C15.1735 8.99021 15.1961 9.21996 15.152 9.44163L16.1328 9.63672C16.2155 9.22107 16.1731 8.79025 16.0109 8.39872L15.087 8.7814ZM15.152 9.44163C15.108 9.66329 14.9991 9.8669 14.8393 10.0267L15.5464 10.7338C15.8461 10.4342 16.0502 10.0524 16.1328 9.63672L15.152 9.44163ZM14.8393 10.0267C14.6795 10.1865 14.4759 10.2954 14.2542 10.3394L14.4493 11.3202C14.865 11.2376 15.2468 11.0335 15.5464 10.7338L14.8393 10.0267ZM14.2542 10.3394C14.0326 10.3835 13.8028 10.3609 13.594 10.2744L13.2113 11.1983C13.6029 11.3605 14.0337 11.4029 14.4493 11.3202L14.2542 10.3394ZM13.594 10.2744C13.3852 10.1879 13.2067 10.0415 13.0812 9.85355L12.2497 10.4091C12.4851 10.7615 12.8198 11.0361 13.2113 11.1983L13.594 10.2744ZM13.0812 9.85355C12.9556 9.66563 12.8886 9.4447 12.8886 9.2187H11.8886C11.8886 9.64248 12.0143 10.0568 12.2497 10.4091L13.0812 9.85355ZM12.8886 9.2187C12.8886 8.91564 13.009 8.62499 13.2233 8.41069L12.5162 7.70358C12.1143 8.10541 11.8886 8.65042 11.8886 9.2187H12.8886ZM13.2233 8.41069C13.4376 8.19638 13.7282 8.07599 14.0313 8.07599V7.07599C13.463 7.07599 12.918 7.30175 12.5162 7.70358L13.2233 8.41069ZM14.8138 4.86597L18.384 8.43615L19.0911 7.72904L15.521 4.15886L14.8138 4.86597ZM19.4996 3.38566C18.9469 3.24838 17.1392 2.95492 14.7096 4.13174C12.2852 5.3061 9.29565 7.91834 6.32104 13.4855L7.20303 13.9568C10.1098 8.51663 12.9642 6.08834 15.1456 5.03172C17.3219 3.97755 18.882 4.26264 19.2585 4.35617L19.4996 3.38566ZM6.40848 14.0747L9.18129 16.8475L9.8884 16.1404L7.11559 13.3676L6.40848 14.0747ZM9.77071 16.9348C15.3559 13.9467 17.9662 10.9479 19.1342 8.52086C20.3046 6.08876 20 4.28585 19.8638 3.74813L18.8944 3.99371C18.986 4.35528 19.2809 5.90972 18.2331 8.08723C17.1828 10.2698 14.7571 13.1329 9.29897 16.0531L9.77071 16.9348ZM8.13129 8.22179C6.70112 8.39644 4.51155 9.14315 2.58503 12.0094L3.41497 12.5672C5.16355 9.96573 7.08074 9.35751 8.25251 9.21441L8.13129 8.22179ZM3 12.2883C3.20889 12.7426 3.20869 12.7426 3.20849 12.7427C3.20843 12.7428 3.20824 12.7429 3.20811 12.7429C3.20787 12.743 3.20764 12.7431 3.20743 12.7432C3.207 12.7434 3.20664 12.7436 3.20634 12.7437C3.20575 12.744 3.20541 12.7441 3.20532 12.7442C3.20515 12.7442 3.206 12.7439 3.20786 12.7431C3.21157 12.7415 3.21932 12.7383 3.23103 12.7337C3.25446 12.7247 3.29375 12.7103 3.34839 12.6931C3.45765 12.6589 3.62827 12.6136 3.85626 12.5776C4.31141 12.5057 4.99883 12.4702 5.88802 12.6359L6.07128 11.6529C5.06297 11.4649 4.26056 11.5013 3.70026 11.5898C3.42053 11.634 3.20202 11.691 3.04908 11.739C2.97261 11.763 2.91254 11.7847 2.86938 11.8014C2.8478 11.8098 2.83044 11.8169 2.81737 11.8225C2.81084 11.8252 2.80538 11.8276 2.801 11.8296C2.79881 11.8305 2.79689 11.8314 2.79524 11.8321C2.79442 11.8325 2.79366 11.8328 2.79297 11.8332C2.79262 11.8333 2.7923 11.8335 2.79199 11.8336C2.79183 11.8337 2.79161 11.8338 2.79153 11.8338C2.79132 11.8339 2.79111 11.834 3 12.2883ZM14.0414 14.9986C13.9012 16.1693 13.2934 18.0863 10.6918 19.835L11.2496 20.665C14.1157 18.7386 14.8629 16.5488 15.0343 15.1176L14.0414 14.9986ZM10.9707 20.25C11.4257 20.4574 11.4258 20.4572 11.4259 20.4569C11.4259 20.4569 11.426 20.4567 11.4261 20.4565C11.4262 20.4562 11.4264 20.4559 11.4265 20.4555C11.4268 20.4548 11.4272 20.4541 11.4275 20.4533C11.4283 20.4516 11.4291 20.4497 11.4301 20.4475C11.432 20.4432 11.4343 20.4377 11.4371 20.4312C11.4426 20.4181 11.4496 20.4008 11.4579 20.3792C11.4745 20.3361 11.4961 20.276 11.5199 20.1995C11.5675 20.0465 11.6242 19.8279 11.6681 19.5482C11.7561 18.988 11.7926 18.1859 11.6062 17.1793L10.623 17.3614C10.7873 18.2493 10.7519 18.937 10.6802 19.393C10.6444 19.6214 10.5993 19.7925 10.5651 19.9022C10.548 19.9571 10.5337 19.9965 10.5246 20.0201C10.5201 20.0319 10.5169 20.0397 10.5153 20.0435C10.5145 20.0454 10.5141 20.0463 10.5142 20.0461C10.5142 20.0461 10.5143 20.0457 10.5146 20.0451C10.5147 20.0449 10.5149 20.0445 10.5151 20.0441C10.5152 20.0439 10.5153 20.0436 10.5154 20.0434C10.5154 20.0433 10.5155 20.0431 10.5156 20.043C10.5157 20.0428 10.5157 20.0426 10.9707 20.25Z" fill="#101C2D"/>
</svg>
