<svg width="24" height="24" viewBox="0 0 24 24" fill="none" xmlns="http://www.w3.org/2000/svg">
<path d="M15.0156 13.7064L14.7444 13.2863L14.7226 13.3004L14.7025 13.3166L15.0156 13.7064ZM8.40273 19.0177L8.67389 19.4378L8.69564 19.4238L8.71583 19.4076L8.40273 19.0177ZM7.3974 10.1776L7.7748 10.5055L7.79756 10.4794L7.81648 10.4503L7.3974 10.1776ZM10.6073 5.24487L10.2299 4.91689L10.2071 4.94308L10.1882 4.97216L10.6073 5.24487ZM9.18945 13.9159L8.72689 13.726L9.18945 13.9159ZM9.32439 13.6687L8.89761 13.4082L9.32439 13.6687ZM7.38473 18.2523L6.90232 18.1209L7.38473 18.2523ZM16.444 6.89715L16.8488 7.19063L16.444 6.89715ZM16.6545 6.63444L17.0526 6.93695L16.6545 6.63444ZM13.9479 10.3403L13.5431 10.0468L13.9479 10.3403ZM13.8407 10.47L13.4617 10.144L13.8407 10.47ZM11.4138 5.375H15.796V4.375H11.4138V5.375ZM7.81648 10.4503L11.0264 5.51758L10.1882 4.97216L6.97832 9.90485L7.81648 10.4503ZM8.40547 11.5H8.20396V12.5H8.40547V11.5ZM8.08265 17.9296L9.65201 14.1057L8.72689 13.726L7.15753 17.5499L8.08265 17.9296ZM14.7025 13.3166L8.08962 18.6279L8.71583 19.4076L15.3287 14.0962L14.7025 13.3166ZM16.0392 6.60368L13.5431 10.0468L14.3527 10.6337L16.8488 7.19063L16.0392 6.60368ZM14.5288 11.5C14.1914 11.5 13.9792 11.0757 14.2198 10.796L13.4617 10.144C12.6958 11.0344 13.287 12.5 14.5288 12.5V11.5ZM15.2867 14.1265C16.4567 13.3713 15.958 11.5 14.5288 11.5V12.5C14.9197 12.5 15.1114 13.0494 14.7444 13.2863L15.2867 14.1265ZM8.03979 19.625C8.26503 19.625 8.48498 19.5598 8.67389 19.4378L8.13156 18.5977C8.10339 18.6158 8.07159 18.625 8.03979 18.625V19.625ZM6.90232 18.1209C6.71211 18.819 7.20523 19.625 8.03979 19.625V18.625C7.97845 18.625 7.93291 18.5988 7.90016 18.553C7.86355 18.5018 7.85247 18.4376 7.86715 18.3838L6.90232 18.1209ZM8.40547 12.5C8.84877 12.5 9.14045 13.0104 8.89761 13.4082L9.75116 13.9292C10.3756 12.9062 9.67726 11.5 8.40547 11.5V12.5ZM7.02 9.84959C6.13554 10.8673 6.82957 12.5 8.20396 12.5V11.5C7.72245 11.5 7.42958 10.9028 7.7748 10.5055L7.02 9.84959ZM15.796 5.375C16.2659 5.375 16.5524 5.9424 16.2564 6.33194L17.0526 6.93695C17.8139 5.935 17.15 4.375 15.796 4.375V5.375ZM11.4138 4.375C10.9589 4.375 10.5281 4.57369 10.2299 4.91689L10.9847 5.57285C11.0952 5.44566 11.2518 5.375 11.4138 5.375V4.375ZM9.65201 14.1057C9.66929 14.0636 9.6951 14.0211 9.75116 13.9292L8.89761 13.4082C8.85581 13.4767 8.78094 13.5944 8.72689 13.726L9.65201 14.1057ZM7.15753 17.5499C7.13334 17.6088 7.1044 17.6595 7.05099 17.7618C7.00484 17.8501 6.94207 17.975 6.90232 18.1209L7.86715 18.3838C7.87678 18.3484 7.89602 18.3039 7.93738 18.2247C7.97147 18.1594 8.03552 18.0444 8.08265 17.9296L7.15753 17.5499ZM16.8488 7.19063C16.871 7.16012 16.897 7.12817 16.9329 7.08495C16.9658 7.04545 17.0104 6.99246 17.0526 6.93695L16.2564 6.33194C16.2307 6.36571 16.203 6.39868 16.1641 6.44552C16.1282 6.48864 16.0829 6.5434 16.0392 6.60368L16.8488 7.19063ZM13.5431 10.0468C13.526 10.0703 13.5086 10.0894 13.4617 10.144L14.2198 10.796C14.246 10.7656 14.3039 10.701 14.3527 10.6337L13.5431 10.0468Z" fill="#101C2D"/>
</svg>
