<svg width="116" height="132" viewBox="0 0 116 132" fill="none" xmlns="http://www.w3.org/2000/svg">
<path d="M96.4013 117.251C93.1791 100.154 91.0183 95.8327 89.0849 93.9751C83.1333 88.2889 79.4183 87.5686 75.9307 86.2797C75.7791 85.332 66.4157 84.2706 66.9085 83.247L67.2118 84.498C67.3634 85.1046 68.1216 87.9098 66.9464 91.5111C65.9608 94.5438 61.9804 95.9085 55.2327 92.8379C42.0784 86.8863 40.5621 80.1765 40.5621 80.1765C40.3725 77.1059 28.166 82.4889 25.4745 83.8536C22.9346 85.1425 22.1006 85.5216 20.2431 87.2274C15.7699 91.2836 14.2536 104.741 12.1307 112.058C8.49149 124.491 4.16992 129.003 4.16992 129.003H102.125C102.088 129.041 98.6 128.965 96.4013 117.251Z" fill="#0560FD" stroke="#101C2D" stroke-width="5.1257" stroke-miterlimit="10" stroke-linecap="round" stroke-linejoin="round"/>
<path d="M24.4131 86.1659C24.4131 86.1659 20.5464 94.0888 25.0954 97.5764C28.3555 100.078 34.8379 100.42 34.8379 100.42C34.8379 100.42 35.2928 108.229 41.5856 108.835C47.8784 109.442 51.5176 104.703 51.5176 104.703C51.5176 104.703 56.6732 111.678 64.0654 111.186C71.4575 110.655 71.1163 102.05 71.1163 102.05C71.1163 102.05 75.5895 104.286 79.2667 103.642C84.8392 102.656 83.9294 94.7333 80.366 92.7999C80.366 92.7999 86.0523 94.2405 84.3085 91.132C82.9438 88.7058 76.234 85.1424 71.0026 83.8156C68.1974 83.0954 65.5059 82.0339 62.9281 80.7829C58.5307 78.6222 48.1438 76.1581 38.2118 78.7738C35.3307 79.4182 23.4654 82.6025 24.4131 86.1659Z" fill="white"/>
<path d="M24.9816 86.2039C24.9437 86.3555 24.8678 86.5451 24.792 86.6967C23.579 89.6915 22.5175 93.7477 24.792 96.4771C25.9672 97.7281 27.7868 98.4104 29.4548 98.8653C31.1986 99.3581 33.0561 99.6235 34.8757 99.7751C35.2169 99.813 35.4443 100.04 35.4822 100.382C35.7855 103.339 37.1123 106.788 40.145 107.85C44.0495 109.063 48.4848 107.319 51.0626 104.286C51.328 103.983 51.8208 103.983 52.0482 104.286C53.375 105.992 55.1188 107.546 57.0142 108.646C59.7816 110.314 63.3071 111.186 66.3397 110.01C69.4103 108.759 70.5855 105.12 70.5855 102.012C70.5855 101.671 70.8509 101.405 71.192 101.405C71.2678 101.405 71.3816 101.443 71.4574 101.443C73.0495 102.201 74.8312 102.77 76.575 102.997C78.3188 103.225 80.1763 103.111 81.3894 102.012C83.8535 99.7372 82.8299 94.8091 80.2522 92.9895C79.911 92.762 80.1763 92.2692 80.5554 92.4209C81.579 92.7241 82.7162 92.9895 83.7777 92.8C85.1803 92.6104 84.3842 91.1699 83.7777 90.5254C82.2613 88.8954 80.2901 87.796 78.3188 86.7346C76.992 86.0522 75.7031 85.2941 74.2626 84.8392C71.4195 83.8156 68.311 83.8536 65.5058 82.6405C64.1031 82.1098 62.7763 81.3516 61.4116 80.783C60.0848 80.2143 58.6822 79.7594 57.2417 79.3803C50.1149 77.3712 42.3437 77.1817 35.2927 79.6078C32.9803 80.2902 24.0339 83.1712 24.9816 86.2039ZM23.8822 86.0902C23.162 82.4509 32.4116 79.7973 35.1031 78.9254C43.7463 76.0823 53.375 76.3098 61.8665 79.5699C64.5959 80.783 67.2495 82.1098 70.1306 82.8679C74.528 84.0052 78.9254 85.4836 82.5267 88.4026C83.4365 89.1607 84.3842 89.9568 84.877 91.0941C85.6731 92.9137 84.2326 93.5202 82.6404 93.3686C81.8443 93.3307 81.1241 93.2169 80.328 93.0653L80.5933 92.3451C83.3607 93.7477 84.3463 97.3111 83.626 100.192C82.4509 104.855 77.2953 104.741 73.5424 103.528C72.6326 103.225 71.7607 102.922 70.8509 102.505L71.6848 101.974C71.7228 105.575 70.2822 109.669 66.7188 111.148C60.8051 113.346 54.5881 109.593 50.9868 105.044H51.9345C49.0156 108.532 44.0495 110.427 39.6522 109.025C36.1267 107.774 34.4587 103.945 34.1554 100.42L34.7241 100.988C31.1227 100.647 26.46 99.9268 23.8443 97.2353C22.4417 95.681 22.1005 93.4823 22.2901 91.5111C22.4796 89.5777 23.0103 87.7202 23.8064 85.9385V85.9006C23.8064 85.9006 23.8064 85.8627 23.8064 85.9385C23.8822 86.0143 23.8822 86.0522 23.8822 86.0902Z" fill="#101C2D"/>
<path d="M33.7763 90.715C33.7763 90.715 25.588 90.9424 28.2795 94.6954C30.9331 98.4104 33.7763 90.715 33.7763 90.715Z" fill="#101C2D"/>
<path d="M44.4287 98.5242C44.4287 98.5242 37.6431 102.846 41.7751 104.627C45.9072 106.409 44.4287 98.5242 44.4287 98.5242Z" fill="#101C2D"/>
<path d="M63.3828 101.064C63.3828 101.064 60.5776 108.304 64.8233 107.319C69.0691 106.333 63.3828 101.064 63.3828 101.064Z" fill="#101C2D"/>
<path d="M73.732 95.2261C73.732 95.2261 74.8313 101.595 77.447 99.0927C80.0627 96.5908 73.732 95.2261 73.732 95.2261Z" fill="#101C2D"/>
<path d="M75.7411 86.8862C75.7411 86.8862 78.5843 91.3594 79.7974 89.464C81.0104 87.5686 75.7411 86.8862 75.7411 86.8862Z" fill="#101C2D"/>
</svg>
