<svg width="116" height="131" viewBox="0 0 116 131" fill="none" xmlns="http://www.w3.org/2000/svg">
<path d="M102.088 129.041H6.21722C6.21722 129.041 11.8656 117.137 14.3676 103.566C16.1113 94.1648 17.4002 88.6681 22.2904 85.6354C25.7401 83.5125 33.1323 81.3138 36.3166 80.1766C38.4774 79.4184 38.9323 80.0629 40.4865 79.6459C40.4865 79.8354 40.5244 79.987 40.5244 80.1766C40.5244 80.1766 44.6185 92.3452 55.2708 96.6668C63.9519 100.192 69.1074 97.842 69.9035 93.9374C70.3963 91.4354 68.8421 87.3413 68.046 86.0145C67.5911 85.6354 67.2878 85.0668 67.1362 84.4982L66.8329 83.2472C67.5532 83.0955 68.2355 82.906 68.9179 82.6786C69.1453 82.6027 69.3349 82.5269 69.5623 82.4511C73.9218 83.5884 83.2473 87.2655 87.3793 91.0563C89.0094 92.5727 92.876 100.154 95.378 111.148C98.2591 123.62 102.088 129.041 102.088 129.041Z" fill="#0560FD"/>
<path d="M102.96 129.495C74.4145 129.685 34.3452 130.14 6.25499 130.026C5.57264 130.026 5.07983 129.268 5.38309 128.661C8.75695 121.231 11.4105 113.308 13.1164 105.31C13.306 104.286 13.723 102.277 13.9125 101.254C14.7844 97.0837 15.4668 92.9516 17.7034 89.1229C18.4615 87.8719 19.4471 86.6967 20.6223 85.749C21.7596 84.8392 23.0864 84.1568 24.4132 83.5503C28.6589 81.7307 32.9426 80.2902 37.3021 78.9634C38.3256 78.7359 39.3491 79.0013 40.3347 78.7738C40.9034 78.6222 41.5099 79.0392 41.5478 79.6457L41.5857 80.1765L40.5622 79.2287C40.9792 79.2287 41.3583 79.4941 41.472 79.8732C41.7753 80.7451 42.1922 81.6549 42.6092 82.5268C43.8981 85.1425 45.4903 87.6065 47.4236 89.7673C49.9635 92.6484 53.1478 94.9229 56.787 96.2118C60.4641 97.5765 67.0223 98.7516 68.8419 94.3542C69.1452 93.5582 69.1073 92.7242 68.9936 91.8523C68.7282 90.0706 68.1217 88.1751 67.2498 86.583L67.4393 86.8104C66.8328 86.0144 66.6053 85.0667 66.6811 84.1569V83.3608V83.247C66.6811 83.1712 66.757 83.0954 66.8328 83.0954C67.2877 82.9438 67.7047 82.7542 68.1596 82.6026C68.5766 82.4131 68.9936 82.2235 69.4105 81.9961C69.5243 81.9203 69.638 81.9582 69.7517 81.9961C72.2537 82.6405 74.6419 83.5124 77.0302 84.498C80.5936 85.9765 84.119 87.6444 87.1896 90.0327C88.289 90.8287 89.0851 92.0039 89.7295 93.1791C91.0184 95.4536 92.0419 97.8039 92.9517 100.192C94.5439 104.362 95.719 108.684 96.7426 113.043C98.0315 117.858 99.5857 122.634 101.974 127.031C102.239 127.486 102.505 127.941 102.77 128.396L102.846 128.472V128.51C103.073 128.699 103.111 129.23 102.96 129.495ZM101.216 128.586C101.026 128.775 101.064 129.306 101.216 129.495V129.458L101.14 129.344C98.4864 124.984 96.8184 120.094 95.4537 115.204C94.7713 112.816 94.2785 110.238 93.5962 107.812C92.2694 103.035 90.6393 98.2209 88.2511 93.8614C87.8341 93.1412 87.3792 92.3451 86.8105 91.7765C85.7112 90.7529 84.4223 89.9189 83.1334 89.1229C81.0106 87.8719 78.736 86.7725 76.4236 85.8248C74.1112 84.8771 71.7609 84.0052 69.3726 83.3608L69.9413 83.3229C68.9177 83.3987 67.9321 83.4366 66.9465 83.3987L67.0981 83.1712C67.3256 83.5503 67.5909 84.1948 67.8184 84.5359C68.0837 84.8771 68.387 85.1425 68.7282 85.2941C68.804 85.3699 68.8798 85.4457 68.9177 85.5216C70.2824 88.1372 71.6471 92.0418 70.6615 94.9608C68.387 100.685 60.7674 99.7752 56.1047 97.9935C52.2001 96.6667 48.6746 94.1268 45.9452 91.0183C43.2158 87.9098 41.055 84.3464 39.6145 80.4797L40.5243 81.1242C39.9936 81.1242 39.5766 80.7451 39.5387 80.2144L39.5007 79.7216L40.7138 80.5935C40.3347 80.7072 39.8798 80.7451 39.4628 80.783C38.4014 80.7451 37.6811 80.7072 36.6955 81.0863C35.4066 81.5412 34.0798 81.9961 32.753 82.4131C30.1373 83.285 27.5596 84.1948 25.0955 85.2941C19.4851 87.5307 17.855 92.0039 16.5661 97.5765C15.9596 100.154 15.4668 103.073 14.936 105.689C13.1922 113.877 10.5386 121.8 7.08898 129.458L6.21708 128.055C33.7007 128.055 73.353 128.32 101.216 128.586Z" fill="#101C2D"/>
<path d="M52.0106 100.647C38.9321 94.7712 33.8524 84.2706 34.838 81.4274C34.838 81.4274 34.838 81.3895 34.8759 81.3516C35.5583 79.949 36.6576 78.8117 38.0223 78.0157C38.7805 77.5608 39.6145 77.1438 40.2968 76.9163C50.6458 74.3385 64.3687 78.698 68.9936 82.6784C70.6615 84.6876 72.3674 86.6967 73.0119 92.0039C73.9217 99.6614 65.5439 106.75 52.0106 100.647Z" fill="white"/>
<path d="M51.821 101.064C45.2628 98.1072 39.1217 93.4824 35.6341 87.0758C34.9517 85.749 34.3452 84.3843 34.1557 82.8301C34.1177 82.2994 34.0798 81.6549 34.3452 81.1242C35.1413 79.532 36.5818 78.2811 38.174 77.5229C39.387 76.8784 40.7138 76.4235 42.0406 76.0065C43.936 75.6654 45.8315 75.5516 47.7648 75.5895C54.0955 75.7791 60.3883 77.4471 65.9988 80.366C66.4158 80.5935 66.8328 80.8209 67.2498 81.0863C67.4014 81.1621 67.5151 81.2758 67.7047 81.2379C67.8942 81.2 68.0458 81.2758 68.1975 81.3516C68.6524 81.617 69.0315 81.9582 69.4485 82.3373C70.472 83.5882 71.4955 84.915 72.1779 86.4314C72.8602 87.9477 73.2393 89.5778 73.4668 91.1699C74.0733 94.4301 72.9739 98.0693 70.4341 100.306C65.2785 104.931 57.5452 103.68 51.821 101.064ZM52.1622 100.268C56.4079 102.125 61.2602 103.301 65.7713 101.86C69.4105 100.761 72.4053 97.4627 72.519 93.5961C72.557 91.3216 72.0262 88.9333 71.1164 86.8484C70.6236 85.5595 69.2589 83.9294 68.5766 83.0954C68.1596 82.7543 67.7047 82.4889 67.3256 82.1477C67.2877 82.0719 67.2498 81.9961 67.2119 81.9203C67.136 81.7307 66.9844 81.6928 66.8707 81.5791C66.4916 81.3516 66.0746 81.1242 65.6576 80.8967C62.3596 79.1909 58.7204 78.2052 55.0811 77.485C50.8354 76.6889 46.4759 76.4614 42.1923 77.068C41.5857 77.1438 40.9413 77.068 40.3347 77.2196C39.8798 77.4092 39.0458 77.7882 38.5151 78.1673C37.1504 78.9634 36.1269 80.1386 35.4066 81.5412L35.3687 81.5791C35.3687 81.617 35.3308 81.6928 35.3308 81.7307C35.1413 83.3229 35.8994 84.9529 36.6197 86.4314C37.2641 87.6445 38.0223 88.8196 38.8942 89.9569C42.3818 94.468 47.0445 97.9556 52.1622 100.268Z" fill="#101C2D"/>
</svg>
