<svg width="67" height="12" viewBox="0 0 67 12" fill="none" xmlns="http://www.w3.org/2000/svg">
<path opacity="0.35" d="M43.0508 2.68317C43.0508 1.48047 44.0258 0.505487 45.2285 0.505487H61.9799C63.1826 0.505487 64.1576 1.48047 64.1576 2.68317V8.71369C64.1576 9.91639 63.1826 10.8914 61.9799 10.8914H45.2285C44.0258 10.8914 43.0508 9.91639 43.0508 8.71368V2.68317Z" stroke="#101C2D"/>
<path opacity="0.4" d="M65.6652 3.68825V7.70859C66.4741 7.36809 67 6.57599 67 5.69842C67 4.82084 66.4741 4.02875 65.6652 3.68825Z" fill="#101C2D"/>
<path d="M44.5585 3.11871C44.5585 2.50811 45.0534 2.01312 45.664 2.01312H61.5444C62.155 2.01312 62.65 2.50811 62.65 3.11871V8.27815C62.65 8.88875 62.155 9.38374 61.5444 9.38374H45.664C45.0534 9.38374 44.5585 8.88875 44.5585 8.27815V3.11871Z" fill="#101C2D"/>
<path fill-rule="evenodd" clip-rule="evenodd" d="M29.8148 2.28891C32.042 2.28901 34.184 3.14477 35.7981 4.67934C35.9196 4.79781 36.1139 4.79632 36.2336 4.67599L37.3955 3.50339C37.4561 3.44236 37.4899 3.35969 37.4894 3.27367C37.4889 3.18765 37.4541 3.10539 37.3928 3.04507C33.1563 -1.01502 26.4727 -1.01502 22.2361 3.04507C22.1748 3.10534 22.1399 3.18758 22.1394 3.2736C22.1388 3.35962 22.1725 3.44231 22.2331 3.50339L23.3953 4.67599C23.515 4.7965 23.7094 4.79799 23.8309 4.67934C25.4452 3.14467 27.5874 2.2889 29.8148 2.28891ZM29.8148 6.10388C31.0385 6.1038 32.2185 6.55864 33.1255 7.38C33.2482 7.49657 33.4415 7.49404 33.5611 7.3743L34.7216 6.2017C34.7827 6.1402 34.8167 6.05676 34.8158 5.97006C34.8149 5.88335 34.7793 5.80062 34.7169 5.74037C31.9548 3.17099 27.6772 3.17099 24.915 5.74037C24.8526 5.80062 24.817 5.88339 24.8162 5.97013C24.8154 6.05686 24.8494 6.14029 24.9107 6.2017L26.0709 7.3743C26.1904 7.49404 26.3837 7.49657 26.5064 7.38C27.4129 6.55918 28.5919 6.10438 29.8148 6.10388ZM32.1396 8.67068C32.1413 8.75763 32.1072 8.84146 32.0451 8.90237L30.0376 10.9283C29.9787 10.9878 29.8985 11.0213 29.8148 11.0213C29.7311 11.0213 29.6509 10.9878 29.592 10.9283L27.5842 8.90237C27.5222 8.84141 27.488 8.75756 27.4899 8.67061C27.4917 8.58366 27.5293 8.50133 27.5939 8.44305C28.876 7.35868 30.7536 7.35868 32.0357 8.44305C32.1002 8.50137 32.1378 8.58373 32.1396 8.67068Z" fill="#101C2D"/>
<path fill-rule="evenodd" clip-rule="evenodd" d="M16.0814 0.337646H15.0763C14.5212 0.337646 14.0712 0.787638 14.0712 1.34273V10.0535C14.0712 10.6086 14.5212 11.0586 15.0763 11.0586H16.0814C16.6365 11.0586 17.0864 10.6086 17.0864 10.0535V1.34273C17.0864 0.787638 16.6365 0.337646 16.0814 0.337646ZM10.3859 2.68284H11.391C11.9461 2.68284 12.3961 3.13284 12.3961 3.68793V10.0535C12.3961 10.6086 11.9461 11.0586 11.391 11.0586H10.3859C9.83079 11.0586 9.3808 10.6086 9.3808 10.0535V3.68793C9.3808 3.13284 9.83079 2.68284 10.3859 2.68284ZM6.70057 5.02804H5.69548C5.14039 5.02804 4.6904 5.47804 4.6904 6.03313V10.0535C4.6904 10.6086 5.14039 11.0586 5.69548 11.0586H6.70057C7.25566 11.0586 7.70565 10.6086 7.70565 10.0535V6.03313C7.70565 5.47804 7.25566 5.02804 6.70057 5.02804ZM2.01017 7.03821H1.00509C0.449992 7.03821 0 7.48821 0 8.0433V10.0535C0 10.6086 0.449992 11.0586 1.00509 11.0586H2.01017C2.56526 11.0586 3.01526 10.6086 3.01526 10.0535V8.0433C3.01526 7.48821 2.56526 7.03821 2.01017 7.03821Z" fill="#101C2D"/>
</svg>
