<svg width="48" height="48" viewBox="0 0 48 48" fill="none" xmlns="http://www.w3.org/2000/svg">
<path d="M23.7155 27.3016L23.36 27.6532L23.3788 27.6722L23.3995 27.6891L23.7155 27.3016ZM32.3231 27.2772L32.0436 26.8626L32.0227 26.8767L32.0033 26.8928L32.3231 27.2772ZM32.7996 27.5309C32.9937 27.3345 32.9919 27.0179 32.7955 26.8238C32.5992 26.6296 32.2826 26.6314 32.0884 26.8278L32.7996 27.5309ZM19.3149 21.0652L18.8154 21.0893L18.816 21.0992L19.3149 21.0652ZM19.7017 23.1685L20.176 23.0099L20.1732 23.002L19.7017 23.1685ZM32.4438 27.2038V27.7038H32.5008L32.5562 27.691L32.4438 27.2038ZM36.3366 23.1685L36.8108 23.327L36.8131 23.3199L36.3366 23.1685ZM36.7234 21.0652L37.2224 21.0992L37.2229 21.0893L36.7234 21.0652ZM16.0641 31.1346L16.1803 30.6482L16.0641 31.1346ZM14.2653 38.8402L14.3814 38.3539L14.2653 38.8402ZM23.5946 27.2038C23.369 27.65 23.3688 27.6499 23.3687 27.6498C23.3687 27.6498 23.3685 27.6498 23.3685 27.6497C23.3683 27.6496 23.3681 27.6495 23.3679 27.6495C23.3676 27.6493 23.3672 27.6491 23.3669 27.6489C23.3662 27.6486 23.3656 27.6482 23.3649 27.6479C23.3636 27.6472 23.3623 27.6466 23.3611 27.6459C23.3587 27.6446 23.3564 27.6434 23.3543 27.6422C23.3502 27.6399 23.3467 27.6379 23.3439 27.6362C23.3383 27.6328 23.3355 27.6308 23.3351 27.6305C23.3341 27.6298 23.3433 27.6363 23.36 27.6532L24.0711 26.9501C24.0152 26.8936 23.964 26.8512 23.9207 26.8199C23.8991 26.8043 23.8797 26.7916 23.8628 26.7813C23.8543 26.7762 23.8465 26.7717 23.8394 26.7678C23.8359 26.7658 23.8325 26.764 23.8293 26.7623C23.8277 26.7614 23.8262 26.7606 23.8247 26.7599C23.8239 26.7595 23.8232 26.7591 23.8224 26.7587C23.8221 26.7585 23.8217 26.7583 23.8214 26.7582C23.8212 26.7581 23.821 26.758 23.8208 26.7579C23.8207 26.7578 23.8206 26.7578 23.8206 26.7578C23.8204 26.7577 23.8203 26.7576 23.5946 27.2038ZM23.3995 27.6891C24.7783 28.8138 25.585 30.5528 25.585 32.3641H26.585C26.585 30.2624 25.6509 28.2351 24.0316 26.9142L23.3995 27.6891ZM25.585 32.3641V39.0897H26.585V32.3641H25.585ZM25.585 39.0897C25.585 39.7273 26.0937 40.25 26.7379 40.25V39.25C26.6567 39.25 26.585 39.1858 26.585 39.0897H25.585ZM29.3008 40.25C29.945 40.25 30.4536 39.7273 30.4536 39.0897H29.4536C29.4536 39.1858 29.3819 39.25 29.3008 39.25V40.25ZM30.4536 39.0897V32.3397H29.4536V39.0897H30.4536ZM30.4536 32.3397C30.4536 30.5312 31.2583 28.8135 32.6429 27.6615L32.0033 26.8928C30.3897 28.2354 29.4536 30.2351 29.4536 32.3397H30.4536ZM32.6027 27.6917C32.6595 27.6534 32.7059 27.6158 32.7383 27.5877C32.7548 27.5734 32.7683 27.561 32.7785 27.5513C32.7837 27.5465 32.788 27.5423 32.7915 27.5389C32.7933 27.5371 32.7948 27.5356 32.7962 27.5343C32.7968 27.5336 32.7975 27.533 32.798 27.5324C32.7983 27.5321 32.7986 27.5319 32.7988 27.5316C32.799 27.5315 32.7991 27.5314 32.7992 27.5312C32.7993 27.5312 32.7993 27.5311 32.7994 27.5311C32.7994 27.531 32.7995 27.531 32.7995 27.531C32.7995 27.5309 32.7996 27.5309 32.444 27.1793C32.0884 26.8278 32.0885 26.8278 32.0885 26.8277C32.0885 26.8277 32.0886 26.8277 32.0886 26.8276C32.0887 26.8276 32.0887 26.8275 32.0888 26.8275C32.0889 26.8274 32.089 26.8273 32.0891 26.8272C32.0893 26.8269 32.0895 26.8267 32.0897 26.8266C32.0901 26.8262 32.0904 26.8258 32.0907 26.8255C32.0913 26.8249 32.0917 26.8245 32.092 26.8242C32.0926 26.8237 32.0926 26.8237 32.0921 26.8242C32.091 26.8252 32.0879 26.8281 32.0832 26.8321C32.0733 26.8407 32.0592 26.852 32.0436 26.8626L32.6027 27.6917ZM28.0192 7.75C25.7425 7.75 23.9902 8.39378 22.6585 9.43554C21.3333 10.4722 20.4583 11.8764 19.8829 13.3474C18.7371 16.2764 18.742 19.5671 18.8155 21.0893L19.8143 21.0411C19.7426 19.5552 19.7476 16.4383 20.8141 13.7117C21.3449 12.355 22.1291 11.1193 23.2747 10.2232C24.4137 9.33211 25.9436 8.75 28.0192 8.75V7.75ZM18.816 21.0992C18.8657 21.8284 18.9668 22.5888 19.2303 23.3349L20.1732 23.002C19.9531 22.3786 19.8607 21.7205 19.8137 21.0312L18.816 21.0992ZM19.2275 23.327C19.834 25.1414 20.8805 26.2333 21.7869 26.8701C22.238 27.1869 22.6522 27.3897 22.9572 27.5143C23.1099 27.5766 23.2358 27.6195 23.3261 27.6475C23.3712 27.6614 23.4076 27.6717 23.4339 27.6788C23.4471 27.6823 23.4578 27.6851 23.4659 27.6871C23.47 27.6881 23.4734 27.6889 23.4761 27.6896C23.4775 27.6899 23.4787 27.6902 23.4797 27.6904C23.4802 27.6905 23.4807 27.6906 23.4811 27.6907C23.4813 27.6908 23.4816 27.6909 23.4817 27.6909C23.482 27.6909 23.4823 27.691 23.5946 27.2038C23.707 26.7166 23.7073 26.7167 23.7075 26.7167C23.7076 26.7167 23.7078 26.7168 23.7079 26.7168C23.7082 26.7169 23.7084 26.7169 23.7086 26.717C23.709 26.717 23.7091 26.7171 23.7092 26.7171C23.7093 26.7171 23.7087 26.717 23.7075 26.7167C23.7051 26.7161 23.7002 26.7148 23.6929 26.7129C23.6783 26.709 23.6543 26.7023 23.6219 26.6922C23.557 26.6721 23.4586 26.6388 23.3351 26.5884C23.0878 26.4875 22.7419 26.3188 22.3617 26.0518C21.6058 25.5208 20.7058 24.5951 20.1759 23.01L19.2275 23.327ZM32.4438 27.2038C32.5562 27.691 32.5565 27.6909 32.5568 27.6909C32.5569 27.6909 32.5572 27.6908 32.5574 27.6907C32.5578 27.6906 32.5583 27.6905 32.5588 27.6904C32.5598 27.6902 32.561 27.6899 32.5624 27.6896C32.5651 27.6889 32.5685 27.6881 32.5726 27.6871C32.5807 27.6851 32.5914 27.6823 32.6046 27.6788C32.6309 27.6717 32.6672 27.6614 32.7124 27.6475C32.8027 27.6195 32.9286 27.5766 33.0812 27.5142C33.3863 27.3897 33.8004 27.1869 34.2515 26.8701C35.1579 26.2333 36.2043 25.1413 36.8108 23.327L35.8624 23.01C35.3325 24.5951 34.4325 25.5208 33.6766 26.0518C33.2965 26.3188 32.9506 26.4875 32.7033 26.5884C32.5798 26.6388 32.4815 26.6721 32.4166 26.6922C32.3842 26.7023 32.3601 26.709 32.3456 26.7129C32.3383 26.7148 32.3334 26.7161 32.331 26.7167C32.3298 26.717 32.3292 26.7171 32.3293 26.7171C32.3293 26.7171 32.3295 26.717 32.3299 26.717C32.3301 26.7169 32.3303 26.7169 32.3305 26.7168C32.3307 26.7168 32.3309 26.7167 32.331 26.7167C32.3312 26.7167 32.3314 26.7166 32.4438 27.2038ZM36.8131 23.3199C37.0446 22.5913 37.1716 21.8419 37.2223 21.0992L36.2246 21.0312C36.1785 21.707 36.0637 22.3761 35.8601 23.0171L36.8131 23.3199ZM37.2229 21.0893C37.2963 19.5671 37.3012 16.2764 36.1554 13.3474C35.58 11.8764 34.705 10.4722 33.3798 9.43554C32.0481 8.39378 30.2958 7.75 28.0192 7.75V8.75C30.0947 8.75 31.6246 9.33211 32.7636 10.2232C33.9092 11.1193 34.6934 12.355 35.2242 13.7117C36.2908 16.4383 36.2957 19.5552 36.224 21.0411L37.2229 21.0893ZM15.948 31.6209C17.7794 32.0583 18.9221 33.9189 18.4868 35.7835L19.4606 36.0108C20.0188 33.6197 18.5562 31.2157 16.1803 30.6482L15.948 31.6209ZM18.4868 35.7835C18.052 37.6462 16.2108 38.7909 14.3814 38.3539L14.1491 39.3266C16.5271 39.8945 18.902 38.4038 19.4606 36.0108L18.4868 35.7835ZM14.3814 38.3539C12.55 37.9165 11.4073 36.0559 11.8425 34.1913L10.8687 33.964C10.3105 36.3551 11.7732 38.7591 14.1491 39.3266L14.3814 38.3539ZM11.8425 34.1913C12.2774 32.3286 14.1185 31.1839 15.948 31.6209L16.1803 30.6482C13.8023 30.0803 11.4274 31.571 10.8687 33.964L11.8425 34.1913ZM26.7379 40.25H29.3008V39.25H26.7379V40.25ZM23.5946 27.7038L32.4438 27.7038V26.7038L23.5946 26.7038V27.7038Z" fill="#101C2D"/>
</svg>
