<svg width="48" height="48" viewBox="0 0 48 48" fill="none" xmlns="http://www.w3.org/2000/svg">
<path d="M28.8806 9.21529L30.2166 7.87928C32.7223 5.37357 36.8216 5.37357 39.3219 7.87928L40.116 8.67337C42.6217 11.1791 42.6217 15.273 40.116 17.7787L38.78 19.1147M15.0537 23.0476L23.0483 15.0476M19.1958 38.6989L17.774 40.1207C15.2683 42.6264 11.1744 42.6264 8.66868 40.1207L7.87458 39.3266C5.37425 36.8209 5.37425 32.7217 7.87995 30.216L9.30181 28.7941M32.9477 24.947L24.953 32.947M26.6271 14.3608L33.672 21.4058M12.8431 28.1449L19.888 35.1898M21.8735 13.7942L26.0666 9.60259L28.6271 12.164L24.434 16.3556L21.8735 13.7942ZM31.6367 23.5567L35.829 19.3643L38.39 21.9253L34.1976 26.1176L31.6367 23.5567ZM28.0329 20.558C27.8665 20.719 27.6036 20.719 27.4427 20.558C27.2817 20.3971 27.2763 20.1288 27.4427 19.9678C27.6036 19.8015 27.8719 19.8068 28.0329 19.9678C28.1938 20.1288 28.1938 20.3971 28.0329 20.558ZM8.08984 27.5827L12.2829 23.391L14.8434 25.9524L10.6503 30.1441L8.08984 27.5827ZM17.8584 37.3453L22.0501 33.1522L24.6115 35.7127L20.4198 39.9058L17.8584 37.3453ZM19.1261 29.4594C18.9651 29.6204 18.6968 29.6258 18.5359 29.4594C18.3749 29.2985 18.3749 29.0302 18.5359 28.8692C18.7022 28.7029 18.9651 28.7083 19.1261 28.8692C19.2871 29.0302 19.2871 29.2985 19.1261 29.4594Z" stroke="#101C2D" stroke-miterlimit="10"/>
</svg>
