<svg width="48" height="48" viewBox="0 0 48 48" fill="none" xmlns="http://www.w3.org/2000/svg">
<path d="M31.5302 20.3273C28.9028 15.5011 23.1817 11.6372 15.8349 11.9648L15.8794 12.9638C22.8368 12.6535 28.2036 16.3082 30.6519 20.8055L31.5302 20.3273ZM24.1547 24.7742C29.099 23.165 33.9772 19.9306 35.7786 15.2357L34.8449 14.8775C33.1992 19.1668 28.6588 22.2567 23.8452 23.8233L24.1547 24.7742ZM23.6315 32.9346C26.7732 32.9477 29.8547 32.0726 32.5207 30.4104L31.9916 29.5618C29.4855 31.1244 26.5889 31.9469 23.6356 31.9346L23.6315 32.9346ZM32.5207 30.4104C35.1867 28.7482 37.3287 26.3664 38.6998 23.5396L37.8001 23.1032C36.5112 25.7604 34.4977 27.9993 31.9916 29.5618L32.5207 30.4104ZM23.5111 24.194C22.4658 29.0763 22.691 34.5942 25.2859 38.5254L26.1205 37.9746C23.7346 34.3601 23.4713 29.1568 24.4889 24.4034L23.5111 24.194ZM16.8537 19.6823C15.3399 22.358 14.5723 25.3911 14.6314 28.4648L15.6312 28.4456C15.5756 25.551 16.2984 22.6946 17.7241 20.1748L16.8537 19.6823ZM14.6314 28.4648C14.6904 31.5385 15.5738 34.54 17.1892 37.1555L18.04 36.6301C16.5187 34.1668 15.6868 31.3403 15.6312 28.4456L14.6314 28.4648ZM24.3402 23.9323C20.5005 20.3674 15.3234 17.6628 10.4191 18.4304L10.5738 19.4184C15.0337 18.7203 19.913 21.1865 23.6598 24.6651L24.3402 23.9323ZM37.7499 24C37.7499 31.5939 31.5939 37.7499 24 37.7499V38.7499C32.1462 38.7499 38.7499 32.1462 38.7499 24H37.7499ZM24 37.7499C16.4061 37.7499 10.25 31.5939 10.25 24H9.25C9.25 32.1462 15.8538 38.7499 24 38.7499V37.7499ZM10.25 24C10.25 16.4061 16.4061 10.25 24 10.25V9.25C15.8538 9.25 9.25 15.8538 9.25 24H10.25ZM24 10.25C31.5939 10.25 37.7499 16.4061 37.7499 24H38.7499C38.7499 15.8538 32.1462 9.25 24 9.25V10.25Z" fill="#101C2D"/>
</svg>
