<svg width="48" height="48" viewBox="0 0 48 48" fill="none" xmlns="http://www.w3.org/2000/svg">
<path d="M29.8531 20.5058L30.3522 20.4756L29.8531 20.5058ZM30.226 18.931L29.7934 18.6802L30.226 18.931ZM29.5258 22.8744L29.958 23.1258L29.5258 22.8744ZM29.9008 21.296L29.4017 21.3262L29.9008 21.296ZM24.8396 10.8322C24.5635 10.8322 24.3396 11.056 24.3396 11.3322C24.3396 11.6083 24.5635 11.8322 24.8396 11.8322V10.8322ZM29.7395 10.5987L29.9852 11.0342C29.9945 11.0289 30.0037 11.0234 30.0126 11.0175L29.7395 10.5987ZM34.7737 8.25L35.273 8.22534C35.2599 7.95911 35.0402 7.75 34.7737 7.75V8.25ZM36.9434 17.8562L37.2821 17.4884C37.2745 17.4813 37.2666 17.4745 37.2585 17.4679L36.9434 17.8562ZM36.7675 17.7134L37.0826 17.3251C37.0589 17.3059 37.0334 17.2889 37.0066 17.2743L36.7675 17.7134ZM35.1776 17.3434L35.1542 16.8438L35.1434 16.8446L35.1776 17.3434ZM34.6042 17.3239L34.5404 17.82L34.553 17.8213L34.6042 17.3239ZM32.396 13.8898C32.4316 13.616 32.2384 13.3652 31.9645 13.3296C31.6907 13.2941 31.4399 13.4873 31.4044 13.7611L32.396 13.8898ZM39.0315 18.7007L38.6387 18.3914V18.3914L39.0315 18.7007ZM38.1569 18.9862L38.0226 19.4679L38.1569 18.9862ZM39.6739 17.2318L39.2291 17.4601L39.6739 17.2318ZM39.5999 17.979L39.9927 18.2883L39.5999 17.979ZM34.8288 9.36704L35.3282 9.34238V9.34238L34.8288 9.36704ZM35.1482 10.1954L34.7593 10.5098L35.1482 10.1954ZM37.7 18.6737L37.3065 18.9821L37.7 18.6737ZM32.2892 8.93556L32.016 8.51678V8.51678L32.2892 8.93556ZM38.0437 14.2582C38.2289 14.0534 38.213 13.7372 38.0082 13.552C37.8034 13.3668 37.4872 13.3826 37.302 13.5874L38.0437 14.2582ZM34.22 16.995C34.0348 17.1998 34.0507 17.516 34.2555 17.7012C34.4603 17.8865 34.7765 17.8706 34.9617 17.6658L34.22 16.995ZM21.6279 13.9767C21.3518 13.9767 21.1279 14.2006 21.1279 14.4767C21.1279 14.7529 21.3518 14.9767 21.6279 14.9767V13.9767ZM30.6748 17.77C30.9273 17.8817 31.2226 17.7675 31.3343 17.515C31.4461 17.2625 31.3319 16.9672 31.0794 16.8555L30.6748 17.77ZM25.0102 14.7174L24.8079 15.1746L25.0102 14.7174ZM19.6636 17.1697C19.3875 17.1697 19.1636 17.3936 19.1636 17.6697C19.1636 17.9458 19.3875 18.1697 19.6636 18.1697V17.1697ZM21.5467 18.1697C21.8228 18.1697 22.0467 17.9458 22.0467 17.6697C22.0467 17.3936 21.8228 17.1697 21.5467 17.1697V18.1697ZM29.0309 22.8989C28.7859 23.0262 28.6905 23.3281 28.8178 23.5731C28.9452 23.8181 29.247 23.9135 29.4921 23.7862L29.0309 22.8989ZM32.84 32.4969C32.6084 32.6473 32.5426 32.9569 32.693 33.1885C32.8434 33.4201 33.153 33.486 33.3846 33.3356L32.84 32.4969ZM36.1415 30.9492L36.4138 31.3686L36.1415 30.9492ZM35.7909 25.2271L35.9368 24.7489L35.7909 25.2271ZM30.1718 26.0595C29.9015 26.003 29.6366 26.1763 29.5801 26.4466C29.5236 26.7169 29.6969 26.9818 29.9672 27.0383L30.1718 26.0595ZM31.6601 30.219C31.418 30.3517 31.3292 30.6556 31.4619 30.8978C31.5946 31.1399 31.8985 31.2287 32.1407 31.096L31.6601 30.219ZM34.3311 29.3255L34.5713 29.764H34.5713L34.3311 29.3255ZM34.1369 27.3992L34.0346 27.8886L34.1369 27.3992ZM24.0962 24.625C23.8976 24.4331 23.581 24.4387 23.3892 24.6374C23.1974 24.836 23.203 25.1526 23.4016 25.3444L24.0962 24.625ZM29.3134 31.2222L29.7558 30.9892L29.7347 30.9492L29.7068 30.9135L29.3134 31.2222ZM34.5651 35.175L34.1485 35.4514L34.1751 35.4915L34.2088 35.5257L34.5651 35.175ZM31.2486 30.1772L30.7972 30.3922L30.8124 30.4241L30.832 30.4536L31.2486 30.1772ZM28.2532 22.7251C28.1344 22.4758 27.8361 22.3699 27.5868 22.4887C27.3374 22.6074 27.2316 22.9058 27.3503 23.1551L28.2532 22.7251ZM36.6767 37.3199L36.3204 37.6706L36.6767 37.3199ZM33.8906 38.6227L34.3401 38.4037L33.8906 38.6227ZM32.8324 36.8196L32.5366 37.2227L32.8324 36.8196ZM33.264 37.3365L32.8145 37.5555V37.5555L33.264 37.3365ZM31.7494 35.8493L32.1919 35.6163L31.7494 35.8493ZM32.1612 36.3271L32.457 35.924L32.1612 36.3271ZM24.9064 25.8387L24.667 26.2776L24.9064 25.8387ZM25.4171 26.2566L25.8105 25.948L25.4171 26.2566ZM19.3485 21.2035C19.6246 21.2035 19.8485 20.9796 19.8485 20.7035C19.8485 20.4273 19.6246 20.2035 19.3485 20.2035V21.2035ZM10.2451 20.2035C9.96901 20.2035 9.74515 20.4273 9.74515 20.7035C9.74515 20.9796 9.96901 21.2035 10.2451 21.2035V20.2035ZM23.1591 32.0581C23.1591 36.0293 19.9343 39.25 15.9545 39.25V40.25C20.485 40.25 24.1591 36.5832 24.1591 32.0581H23.1591ZM15.9545 39.25C11.9748 39.25 8.75 36.0293 8.75 32.0581H7.75C7.75 36.5832 11.4241 40.25 15.9545 40.25V39.25ZM8.75 32.0581C8.75 28.087 11.9748 24.8663 15.9545 24.8663V23.8663C11.4241 23.8663 7.75 27.5331 7.75 32.0581H8.75ZM15.9545 24.8663C19.9343 24.8663 23.1591 28.087 23.1591 32.0581H24.1591C24.1591 27.5331 20.485 23.8663 15.9545 23.8663V24.8663ZM29.1005 24.6L29.958 23.1258L29.0936 22.623L28.2361 24.0972L29.1005 24.6ZM30.3999 21.2658L30.3522 20.4756L29.354 20.5359L29.4017 21.3262L30.3999 21.2658ZM30.6586 19.1817L32.6036 15.8263L31.7384 15.3248L29.7934 18.6802L30.6586 19.1817ZM30.3522 20.4756C30.3248 20.0237 30.4314 19.5737 30.6586 19.1817L29.7934 18.6802C29.4677 19.2422 29.3148 19.8876 29.354 20.5359L30.3522 20.4756ZM29.958 23.1258C30.2854 22.5628 30.4392 21.9158 30.3999 21.2658L29.4017 21.3262C29.4291 21.7793 29.322 22.2304 29.0936 22.623L29.958 23.1258ZM24.8396 11.8322C26.6246 11.8322 28.1729 12.0567 29.9852 11.0342L29.4938 10.1633C27.97 11.023 26.7686 10.8322 24.8396 10.8322V11.8322ZM30.0126 11.0175L32.5624 9.35434L32.016 8.51678L29.4663 10.1799L30.0126 11.0175ZM34.5956 8.75H34.7737V7.75H34.5956V8.75ZM34.2743 8.27466L34.3294 9.39169L35.3282 9.34238L35.273 8.22534L34.2743 8.27466ZM34.7593 10.5098C36.5011 12.6643 37.9581 14.9832 39.2291 17.4601L40.1188 17.0035C38.8216 14.4756 37.3285 12.0971 35.537 9.88109L34.7593 10.5098ZM39.2071 17.6696L38.6387 18.3914L39.4243 19.0101L39.9927 18.2883L39.2071 17.6696ZM38.0936 18.3653C37.8467 18.0503 37.5749 17.758 37.2821 17.4884L36.6047 18.2239C36.8594 18.4585 37.0942 18.7113 37.3065 18.9821L38.0936 18.3653ZM37.2585 17.4679L37.0826 17.3251L36.4524 18.1016L36.6283 18.2444L37.2585 17.4679ZM37.0066 17.2743C36.4399 16.9657 35.8021 16.8136 35.1542 16.8439L35.201 17.8428C35.6609 17.8213 36.1177 17.9288 36.5284 18.1525L37.0066 17.2743ZM35.1434 16.8446C34.9972 16.8546 34.8352 16.8451 34.6555 16.8266L34.553 17.8213C34.7512 17.8417 34.9801 17.8581 35.2119 17.8422L35.1434 16.8446ZM34.6681 16.828C33.2277 16.6425 32.2102 15.322 32.396 13.8898L31.4044 13.7611C31.1471 15.7431 32.5535 17.564 34.5404 17.8198L34.6681 16.828ZM38.6387 18.3914C38.5567 18.4955 38.4196 18.5404 38.2913 18.5046L38.0226 19.4679C38.5393 19.612 39.0923 19.4316 39.4243 19.0101L38.6387 18.3914ZM39.2291 17.4601C39.2628 17.5257 39.2559 17.6076 39.2071 17.6696L39.9927 18.2883C40.2803 17.9231 40.3333 17.4217 40.1188 17.0035L39.2291 17.4601ZM34.3294 9.39169C34.3498 9.80392 34.5041 10.1941 34.7593 10.5098L35.537 9.88109C35.4106 9.72475 35.3378 9.53604 35.3282 9.34238L34.3294 9.39169ZM38.2913 18.5046C38.2222 18.4854 38.1517 18.4394 38.0936 18.3653L37.3065 18.9821C37.4817 19.2057 37.727 19.3854 38.0226 19.4679L38.2913 18.5046ZM32.5624 9.35434C33.1669 8.96003 33.8734 8.75 34.5956 8.75V7.75C33.6795 7.75 32.7831 8.01642 32.016 8.51678L32.5624 9.35434ZM37.302 13.5874L34.22 16.995L34.9617 17.6658L38.0437 14.2582L37.302 13.5874ZM21.6279 14.9767H23.8714V13.9767H21.6279V14.9767ZM24.8079 15.1746L30.6748 17.77L31.0794 16.8555L25.2125 14.2601L24.8079 15.1746ZM23.8714 14.9767C24.194 14.9767 24.513 15.0442 24.8079 15.1746L25.2125 14.2601C24.7901 14.0733 24.3333 13.9767 23.8714 13.9767V14.9767ZM19.6636 18.1697H21.5467V17.1697H19.6636V18.1697ZM29.4921 23.7862C29.3994 23.8344 29.317 23.8387 29.3044 23.8395C29.2773 23.8414 29.2577 23.8402 29.2518 23.8398C29.2389 23.839 29.2355 23.8379 29.2484 23.8401C29.2717 23.844 29.3136 23.8526 29.378 23.8678C29.5044 23.8975 29.6866 23.9451 29.9151 24.0076C30.3705 24.1322 30.9905 24.3109 31.6728 24.5116C33.0364 24.9128 34.638 25.3984 35.6451 25.7054L35.9368 24.7489C34.9289 24.4416 33.3235 23.9549 31.955 23.5523C31.2712 23.3511 30.6439 23.1702 30.179 23.043C29.9474 22.9797 29.7513 22.9283 29.6071 22.8944C29.5362 22.8777 29.4698 22.8633 29.415 22.854C29.3888 22.8496 29.354 22.8444 29.3176 22.842C29.2998 22.8408 29.2704 22.8395 29.2356 22.8419C29.2152 22.8433 29.1272 22.8488 29.0309 22.8989L29.4921 23.7862ZM36.2807 26.5661V29.7729H37.2807V26.5661H36.2807ZM35.8692 30.5299L32.84 32.4969L33.3846 33.3356L36.4138 31.3686L35.8692 30.5299ZM36.2807 29.7729C36.2807 30.0782 36.1261 30.3631 35.8692 30.5299L36.4138 31.3686C36.9543 31.0176 37.2807 30.4173 37.2807 29.7729H36.2807ZM35.6451 25.7054C36.0236 25.8208 36.2807 26.1689 36.2807 26.5661H37.2807C37.2807 25.7314 36.7384 24.9933 35.9368 24.7489L35.6451 25.7054ZM29.9672 27.0383L34.0346 27.8886L34.2392 26.9098L30.1718 26.0595L29.9672 27.0383ZM34.1957 28.0859V28.7104H35.1957V28.0859H34.1957ZM34.0908 28.887L31.6601 30.219L32.1407 31.096L34.5713 29.764L34.0908 28.887ZM34.1957 28.7104C34.1957 28.7836 34.1557 28.8514 34.0908 28.887L34.5713 29.764C34.9561 29.5531 35.1957 29.1494 35.1957 28.7104H34.1957ZM34.0346 27.8886C34.129 27.9084 34.1957 27.9911 34.1957 28.0859H35.1957C35.1957 27.5166 34.796 27.0262 34.2392 26.9098L34.0346 27.8886ZM23.4016 25.3444C23.7761 25.7059 24.199 26.0224 24.667 26.2776L25.1458 25.3997C24.7608 25.1898 24.4098 24.9277 24.0962 24.625L23.4016 25.3444ZM25.0238 26.5653L28.92 31.5308L29.7068 30.9135L25.8105 25.948L25.0238 26.5653ZM28.871 31.4551L31.307 36.0822L32.1919 35.6163L29.7558 30.9892L28.871 31.4551ZM31.8655 36.7303L32.5366 37.2227L33.1281 36.4164L32.457 35.924L31.8655 36.7303ZM32.8145 37.5555L33.4412 38.8417L34.3401 38.4037L33.7135 37.1175L32.8145 37.5555ZM34.5226 39.5174H36.1754V38.5174H34.5226V39.5174ZM37.3782 38.3158V37.8117H36.3782V38.3158H37.3782ZM37.033 36.9691L34.9214 34.8242L34.2088 35.5257L36.3204 37.6706L37.033 36.9691ZM34.9817 34.8985L31.6652 29.9007L30.832 30.4536L34.1485 35.4514L34.9817 34.8985ZM31.7 29.9622L28.2532 22.7251L27.3503 23.1551L30.7972 30.3922L31.7 29.9622ZM37.3782 37.8117C37.3782 37.4963 37.2541 37.1937 37.033 36.9691L36.3204 37.6706C36.3575 37.7084 36.3782 37.7591 36.3782 37.8117H37.3782ZM33.4412 38.8417C33.6427 39.2554 34.0628 39.5174 34.5226 39.5174V38.5174C34.4446 38.5174 34.3739 38.473 34.3401 38.4037L33.4412 38.8417ZM32.5366 37.2227C32.655 37.3095 32.7503 37.4238 32.8145 37.5555L33.7135 37.1175C33.5781 36.8398 33.3772 36.5992 33.1281 36.4164L32.5366 37.2227ZM31.307 36.0822C31.4416 36.3378 31.6326 36.5594 31.8655 36.7303L32.457 35.924C32.3463 35.8428 32.2557 35.7376 32.1919 35.6163L31.307 36.0822ZM36.1754 39.5174C36.8389 39.5174 37.3782 38.9802 37.3782 38.3158H36.3782C36.3782 38.4264 36.2882 38.5174 36.1754 38.5174V39.5174ZM24.667 26.2776C24.8181 26.3601 24.9383 26.4564 25.0238 26.5653L25.8105 25.948C25.6217 25.7073 25.385 25.5302 25.1458 25.3997L24.667 26.2776ZM19.3485 20.2035H10.2451V21.2035H19.3485V20.2035Z" fill="#101C2D"/>
</svg>
