<svg width="48" height="48" viewBox="0 0 48 48" fill="none" xmlns="http://www.w3.org/2000/svg">
<path d="M36.2955 29.9515L35.8455 29.7337L36.2955 29.9515ZM18.0481 36.2959L17.8302 36.746L18.0481 36.2959ZM11.7037 18.0485L11.2536 17.8306L11.7037 18.0485ZM29.9511 11.704L29.7333 12.1541L29.9511 11.704ZM20.2486 11.2094C20.0857 10.9864 19.7729 10.9377 19.5499 11.1006C19.3269 11.2635 19.2782 11.5763 19.4411 11.7993L20.2486 11.2094ZM20.6768 16.2676L20.198 16.1233L20.1965 16.1288L20.6768 16.2676ZM18.107 21.1924L18.5712 21.3781L18.5726 21.3746L18.107 21.1924ZM18.064 26.1703L18.5329 25.9967L18.5312 25.9922L18.064 26.1703ZM21.3652 29.8422L21.1474 30.2922L21.3652 29.8422ZM26.2931 30.1534L26.4432 30.6304L26.4478 30.6289L26.2931 30.1534ZM30.1706 27.0315L29.7388 26.7793L29.7369 26.7826L30.1706 27.0315ZM32.4388 21.9607L32.0328 21.669L32.032 21.6701L32.4388 21.9607ZM36.7134 20.1577C36.9892 20.1452 37.2028 19.9115 37.1903 19.6356C37.1779 19.3598 36.9441 19.1462 36.6683 19.1587L36.7134 20.1577ZM35.8455 29.7337C32.6789 36.276 24.8082 39.0125 18.2659 35.8459L17.8302 36.746C24.8697 40.1532 33.3384 37.2087 36.7456 30.1693L35.8455 29.7337ZM18.2659 35.8459C11.7236 32.6792 8.9871 24.8086 12.1537 18.2663L11.2536 17.8306C7.84638 24.87 10.7908 33.3387 17.8302 36.746L18.2659 35.8459ZM12.1537 18.2663C15.3204 11.724 23.191 8.98747 29.7333 12.1541L30.169 11.254C23.1296 7.84675 14.6609 10.7912 11.2536 17.8306L12.1537 18.2663ZM29.7333 12.1541C36.2756 15.3207 39.0121 23.1914 35.8455 29.7337L36.7456 30.1693C40.1528 23.1299 37.2084 14.6612 30.169 11.254L29.7333 12.1541ZM19.4411 11.7993C20.3424 13.0331 20.6343 14.6758 20.1981 16.1234L21.1556 16.4119C21.6843 14.6572 21.3304 12.6903 20.2486 11.2094L19.4411 11.7993ZM20.1965 16.1288C19.9617 16.9412 19.523 17.6892 19.0278 18.4852C18.5441 19.2627 17.999 20.0964 17.6414 21.0102L18.5726 21.3746C18.8886 20.5671 19.3722 19.8248 19.8769 19.0134C20.3702 18.2205 20.8796 17.3668 21.1572 16.4065L20.1965 16.1288ZM17.6427 21.0067C16.9638 22.7042 16.9425 24.6326 17.5968 26.3485L18.5312 25.9922C17.9669 24.5125 17.9849 22.8439 18.5712 21.3781L17.6427 21.0067ZM17.5951 26.3439C18.2217 28.0363 19.2501 29.3739 21.1474 30.2922L21.5831 29.3921C19.9474 28.6004 19.0817 27.479 18.5329 25.9967L17.5951 26.3439ZM21.1474 30.2922C23.0245 31.2008 24.7103 31.1757 26.4432 30.6304L26.143 29.6765C24.6136 30.1578 23.1958 30.1727 21.5831 29.3921L21.1474 30.2922ZM26.4478 30.6289C28.1705 30.0683 29.6921 28.8694 30.6042 27.2804L29.7369 26.7826C28.953 28.1482 27.6348 29.191 26.1383 29.678L26.4478 30.6289ZM30.6024 27.2836C31.0972 26.4363 31.4128 25.4915 31.7226 24.6298C32.0397 23.7476 32.3542 22.9395 32.8457 22.2513L32.032 21.6701C31.451 22.4836 31.0974 23.4128 30.7815 24.2915C30.4583 25.1907 30.1761 26.0305 29.7388 26.7793L30.6024 27.2836ZM32.8449 22.2524C33.733 21.0162 35.2072 20.2257 36.7134 20.1577L36.6683 19.1587C34.8582 19.2404 33.1006 20.1826 32.0328 21.669L32.8449 22.2524Z" fill="#101C2D"/>
</svg>
