<svg width="48" height="48" viewBox="0 0 48 48" fill="none" xmlns="http://www.w3.org/2000/svg">
<path d="M30.6565 33.9247L30.2362 34.1956L30.2367 34.1964L30.6565 33.9247ZM30.4955 33.6749L30.9158 33.4041L30.9153 33.4033L30.4955 33.6749ZM17.5045 33.6756L17.0847 33.4039L17.0845 33.4043L17.5045 33.6756ZM17.3435 33.9247L17.7635 34.1961L17.7635 34.1961L17.3435 33.9247ZM9.96576 34.0835L10.3742 33.7951L10.3739 33.7947L9.96576 34.0835ZM9.87987 33.9621L9.47128 34.2503L9.47173 34.251L9.87987 33.9621ZM12.2063 14.505L12.6627 14.7093L12.6627 14.7093L12.2063 14.505ZM19.4874 13.4261L19.1098 13.7539L19.1099 13.754L19.4874 13.4261ZM28.5126 13.4261L28.8901 13.754L28.8902 13.7539L28.5126 13.4261ZM35.7943 14.505L36.2507 14.3007L36.2507 14.3007L35.7943 14.505ZM38.1201 33.9628L38.5283 34.2517L38.5287 34.2511L38.1201 33.9628ZM38.0342 34.0842L37.6261 33.7954L37.6259 33.7957L38.0342 34.0842ZM17.0176 18.8945C17.0176 18.6184 16.7938 18.3945 16.5176 18.3945C16.2415 18.3945 16.0176 18.6184 16.0176 18.8945H17.0176ZM16.0176 24.8117C16.0176 25.0878 16.2415 25.3117 16.5176 25.3117C16.7938 25.3117 17.0176 25.0878 17.0176 24.8117H16.0176ZM13.6819 21.3533C13.4057 21.3533 13.1819 21.5772 13.1819 21.8533C13.1819 22.1295 13.4057 22.3533 13.6819 22.3533V21.3533ZM19.3534 22.3533C19.6295 22.3533 19.8534 22.1295 19.8534 21.8533C19.8534 21.5772 19.6295 21.3533 19.3534 21.3533V22.3533ZM34.3991 35.5C33.0721 35.5 31.8288 34.8157 31.0762 33.653L30.2367 34.1964C31.1668 35.6334 32.7207 36.5 34.3991 36.5V35.5ZM31.0768 33.6539L30.9158 33.4041L30.0752 33.9458L30.2362 34.1956L31.0768 33.6539ZM30.9153 33.4033C29.5185 31.2451 27.1855 29.9467 24.6712 29.9467V30.9467C26.8343 30.9467 28.8566 32.0629 30.0758 33.9466L30.9153 33.4033ZM24.6712 29.9467H23.3288V30.9467H24.6712V29.9467ZM23.3288 29.9467C20.8145 29.9467 18.4822 31.2451 17.0847 33.4039L17.9242 33.9473C19.1441 32.0629 21.1658 30.9467 23.3288 30.9467V29.9467ZM17.0845 33.4043L16.9236 33.6534L17.7635 34.1961L17.9244 33.947L17.0845 33.4043ZM16.9236 33.6534C16.1726 34.8155 14.9281 35.5 13.6009 35.5V36.5C15.2791 36.5 16.8345 35.6335 17.7635 34.1961L16.9236 33.6534ZM13.6009 35.5C12.3396 35.5 11.131 34.8671 10.3742 33.7951L9.5573 34.3719C10.4953 35.7005 12.0041 36.5 13.6009 36.5V35.5ZM10.3739 33.7947L10.288 33.6733L9.47173 34.251L9.55762 34.3723L10.3739 33.7947ZM10.2885 33.6739C9.77382 32.9443 9.5 32.0792 9.5 31.1685H8.5C8.5 32.283 8.8362 33.3499 9.47128 34.2503L10.2885 33.6739ZM9.5 31.1685V29.5717H8.5V31.1685H9.5ZM9.5 29.5717C9.5 24.4693 10.5945 19.3293 12.6627 14.7093L11.75 14.3007C9.62379 19.0501 8.5 24.3295 8.5 29.5717H9.5ZM12.6627 14.7093C13.2669 13.3595 14.5739 12.5 15.9774 12.5V11.5C14.1617 11.5 12.5078 12.6078 11.75 14.3007L12.6627 14.7093ZM15.9774 12.5H16.4035V11.5H15.9774V12.5ZM16.4035 12.5C17.4276 12.5 18.4151 12.9537 19.1098 13.7539L19.8649 13.0983C18.9852 12.085 17.7248 11.5 16.4035 11.5V12.5ZM19.1099 13.754C19.6411 14.3655 20.4044 14.7213 21.2065 14.7213V13.7213C20.702 13.7213 20.2115 13.4972 19.8648 13.0982L19.1099 13.754ZM21.2065 14.7213H26.7941V13.7213H21.2065V14.7213ZM26.7941 14.7213C27.5964 14.7213 28.359 14.3654 28.8901 13.754L28.1352 13.0982C27.7884 13.4973 27.2985 13.7213 26.7941 13.7213V14.7213ZM28.8902 13.7539C29.5849 12.9537 30.5724 12.5 31.5972 12.5V11.5C30.2753 11.5 29.0148 12.085 28.1351 13.0983L28.8902 13.7539ZM31.5972 12.5H32.0226V11.5H31.5972V12.5ZM32.0226 12.5C33.4268 12.5 34.7338 13.3595 35.338 14.7093L36.2507 14.3007C35.4928 12.6078 33.8389 11.5 32.0226 11.5V12.5ZM35.338 14.7093C37.4062 19.3299 38.5 24.47 38.5 29.5717H39.5C39.5 24.3302 38.3769 19.0509 36.2507 14.3007L35.338 14.7093ZM38.5 29.5717V31.1685H39.5V29.5717H38.5ZM38.5 31.1685C38.5 32.0794 38.2267 32.9444 37.7116 33.6746L38.5287 34.2511C39.1646 33.3498 39.5 32.2828 39.5 31.1685H38.5ZM37.712 33.674L37.6261 33.7954L38.4424 34.373L38.5283 34.2517L37.712 33.674ZM37.6259 33.7957C36.869 34.8671 35.6604 35.5 34.3991 35.5V36.5C35.9959 36.5 37.5046 35.7005 38.4426 34.3727L37.6259 33.7957ZM24.2907 26.5989C24.2907 26.7988 24.1407 26.9242 23.9998 26.9242V27.9242C24.7326 27.9242 25.2907 27.3107 25.2907 26.5989H24.2907ZM23.9998 26.9242C23.8595 26.9242 23.7093 26.799 23.7093 26.5989H22.7093C22.7093 27.3105 23.2672 27.9242 23.9998 27.9242V26.9242ZM23.7093 26.5989C23.7093 26.3988 23.8595 26.2736 23.9998 26.2736V25.2736C23.2672 25.2736 22.7093 25.8874 22.7093 26.5989H23.7093ZM23.9998 26.2736C24.1407 26.2736 24.2907 26.399 24.2907 26.5989H25.2907C25.2907 25.8872 24.7326 25.2736 23.9998 25.2736V26.2736ZM31.8909 19.2694C31.8909 19.4108 31.7863 19.4888 31.7014 19.4888V20.4888C32.3782 20.4888 32.8909 19.9227 32.8909 19.2694H31.8909ZM31.7014 19.4888C31.6172 19.4888 31.5124 19.411 31.5124 19.2694H30.5124C30.5124 19.9225 31.0249 20.4888 31.7014 20.4888V19.4888ZM31.5124 19.2694C31.5124 19.1279 31.6172 19.0501 31.7014 19.0501V18.0501C31.0249 18.0501 30.5124 18.6164 30.5124 19.2694H31.5124ZM31.7014 19.0501C31.7863 19.0501 31.8909 19.1281 31.8909 19.2694H32.8909C32.8909 18.6162 32.3782 18.0501 31.7014 18.0501V19.0501ZM31.8909 24.4366C31.8909 24.5779 31.7863 24.6559 31.7014 24.6559V25.6559C32.3782 25.6559 32.8909 25.0898 32.8909 24.4366H31.8909ZM31.7014 24.6559C31.6172 24.6559 31.5124 24.5781 31.5124 24.4366H30.5124C30.5124 25.0896 31.0249 25.6559 31.7014 25.6559V24.6559ZM31.5124 24.4366C31.5124 24.295 31.6172 24.2172 31.7014 24.2172V23.2172C31.0249 23.2172 30.5124 23.7835 30.5124 24.4366H31.5124ZM31.7014 24.2172C31.7863 24.2172 31.8909 24.2952 31.8909 24.4366H32.8909C32.8909 23.7833 32.3782 23.2172 31.7014 23.2172V24.2172ZM29.2993 21.8532C29.2993 21.9946 29.1947 22.0725 29.1098 22.0725V23.0725C29.7865 23.0725 30.2993 22.5064 30.2993 21.8532H29.2993ZM29.1098 22.0725C29.0255 22.0725 28.9208 21.9948 28.9208 21.8532H27.9208C27.9208 22.5062 28.4333 23.0725 29.1098 23.0725V22.0725ZM28.9208 21.8532C28.9208 21.7116 29.0255 21.6339 29.1098 21.6339V20.6339C28.4333 20.6339 27.9208 21.2002 27.9208 21.8532H28.9208ZM29.1098 21.6339C29.1947 21.6339 29.2993 21.7118 29.2993 21.8532H30.2993C30.2993 21.2 29.7865 20.6339 29.1098 20.6339V21.6339ZM34.3865 21.8532C34.3865 21.9946 34.282 22.0725 34.1971 22.0725V23.0725C34.8738 23.0725 35.3865 22.5064 35.3865 21.8532H34.3865ZM34.1971 22.0725C34.1128 22.0725 34.0081 21.9948 34.0081 21.8532H33.0081C33.0081 22.5062 33.5206 23.0725 34.1971 23.0725V22.0725ZM34.0081 21.8532C34.0081 21.7116 34.1128 21.6339 34.1971 21.6339V20.6339C33.5206 20.6339 33.0081 21.2002 33.0081 21.8532H34.0081ZM34.1971 21.6339C34.282 21.6339 34.3865 21.7118 34.3865 21.8532H35.3865C35.3865 21.2 34.8738 20.6339 34.1971 20.6339V21.6339ZM16.0176 18.8945V21.8533H17.0176V18.8945H16.0176ZM16.0176 21.8533V24.8117H17.0176V21.8533H16.0176ZM13.6819 22.3533H16.5176V21.3533H13.6819V22.3533ZM16.5176 22.3533H19.3534V21.3533H16.5176V22.3533Z" fill="#101C2D"/>
</svg>
