<svg width="48" height="48" viewBox="0 0 48 48" fill="none" xmlns="http://www.w3.org/2000/svg">
<path d="M15.0556 16.077L13.15 15.1848M16.6444 13.1158L14.95 11.8733M14.15 19.2681L12 18.6332M15.9333 12.3221C17.5611 10.0834 19.8667 9.99036 19.8667 9.99036C19.8667 9.99036 20.8778 7.27546 24.4889 6.75V10.0889L27.6944 10.6308L28.4278 11.9116C28.4278 11.9116 34.05 16.0168 35.2722 17.626C35.2722 17.626 36.2889 21.4466 33.3333 20.943C33.3333 20.943 24.3056 17.9763 24.4333 20.6912C24.4333 20.6912 32.3167 25.508 32.0111 33.0451H18.2778C18.2778 33.0451 18.4278 29.2628 15.9667 27.7302C12.8278 25.7707 12.4444 23.3678 12.9556 19.1969M33.2056 36.6522C34.8389 37.5553 36 41.25 36 41.25H14.0833C14.0833 41.25 15.2444 37.5553 16.8778 36.6522H33.2111H33.2056Z" stroke="#101C2D" stroke-miterlimit="10" stroke-linecap="round"/>
</svg>
