<svg width="48" height="48" viewBox="0 0 48 48" fill="none" xmlns="http://www.w3.org/2000/svg">
<path d="M34.9866 14.8113L35.1999 15.2635L34.9866 14.8113ZM32.3031 9.30086L32.5164 9.75306V9.75306L32.3031 9.30086ZM19.6269 33.6051C19.526 33.8622 19.6526 34.1524 19.9096 34.2533C20.1667 34.3542 20.4569 34.2276 20.5578 33.9706L19.6269 33.6051ZM21.4284 30.3846L21.8938 30.5673C21.8957 30.5626 21.8975 30.5578 21.8992 30.553L21.4284 30.3846ZM21.3588 29.2646L21.8084 29.0456L21.805 29.0389L21.3588 29.2646ZM17.3877 21.4106L16.9401 21.6335L16.9415 21.6362L17.3877 21.4106ZM18.9387 17.004L19.1481 17.4581L19.1513 17.4566L18.9387 17.004ZM28.1028 13.2515C28.3527 13.1341 28.4602 12.8363 28.3427 12.5863C28.2253 12.3364 27.9275 12.229 27.6776 12.3464L28.1028 13.2515ZM32.4279 17.2165C32.3107 16.9665 32.013 16.8588 31.763 16.9761C31.5129 17.0933 31.4053 17.391 31.5225 17.641L32.4279 17.2165ZM33.3929 20.4528L32.9401 20.665L32.9434 20.6717L33.3929 20.4528ZM34.1055 21.0893L34.2692 20.6169L34.1055 21.0893ZM37.1437 22.1418L36.9801 22.6143L37.1437 22.1418ZM36.0434 25.2189L35.8797 25.6914L36.0434 25.2189ZM31.4861 23.6401L31.6498 23.1677L31.4861 23.6401ZM30.7735 23.0036L30.3224 23.2193L30.3239 23.2225L30.7735 23.0036ZM28.7916 18.8587L29.2427 18.643C29.1855 18.5234 29.083 18.4313 28.958 18.3872C28.8329 18.3431 28.6954 18.3504 28.5758 18.4077L28.7916 18.8587ZM23.4184 21.4297L23.6317 21.8819L23.6342 21.8807L23.4184 21.4297ZM23.0375 22.5641L23.4821 22.3353L23.4791 22.3297L23.0375 22.5641ZM25.7531 27.84L25.3085 28.0688L25.3128 28.0768L25.7531 27.84ZM25.8447 28.9677L25.3739 28.7993L25.3735 28.8006L25.8447 28.9677ZM23.1691 35.0176C23.0768 35.2779 23.213 35.5637 23.4733 35.656C23.7335 35.7482 24.0193 35.6121 24.1116 35.3518L23.1691 35.0176ZM9.90268 30.4117C9.63973 30.3274 9.35821 30.4722 9.27388 30.7351C9.18956 30.9981 9.33436 31.2796 9.59732 31.3639L9.90268 30.4117ZM34.7034 38.89L34.8671 38.4174L34.8561 38.4139L34.7034 38.89ZM37.0904 35.5131C36.9491 35.2758 36.6422 35.198 36.405 35.3393C36.1677 35.4805 36.0899 35.7874 36.2311 36.0247L37.0904 35.5131ZM34.2708 25.1929C34.5302 25.2876 34.8172 25.1541 34.9119 24.8947C35.0065 24.6353 34.873 24.3482 34.6136 24.2536L34.2708 25.1929ZM13.5225 16.5561C13.2631 16.4614 12.9761 16.595 12.8814 16.8544C12.7867 17.1138 12.9203 17.4008 13.1797 17.4955L13.5225 16.5561ZM35.9945 10.9544C36.6115 12.2213 36.0716 13.7465 34.7732 14.3591L35.1999 15.2635C36.9935 14.4173 37.7587 12.2929 36.8936 10.5165L35.9945 10.9544ZM34.7732 14.3591C33.4706 14.9736 31.9143 14.4292 31.2951 13.1578L30.396 13.5956C31.2589 15.3675 33.4105 16.1077 35.1999 15.2635L34.7732 14.3591ZM31.2951 13.1578C30.6781 11.8909 31.2181 10.3656 32.5164 9.75306L32.0897 8.84866C30.2962 9.69484 29.531 11.8192 30.396 13.5956L31.2951 13.1578ZM32.5164 9.75306C33.819 9.13853 35.3754 9.68292 35.9945 10.9544L36.8936 10.5165C36.0307 8.74465 33.8791 8.00446 32.0897 8.84866L32.5164 9.75306ZM20.5578 33.9706L21.8938 30.5673L20.963 30.2019L19.6269 33.6051L20.5578 33.9706ZM21.8992 30.553C22.0788 30.0507 22.035 29.5112 21.8083 29.0456L20.9093 29.4835C21.025 29.7211 21.0415 29.9817 20.9576 30.2162L21.8992 30.553ZM21.805 29.0389L17.8339 21.185L16.9415 21.6362L20.9126 29.4902L21.805 29.0389ZM17.8352 21.1877C17.1392 19.7904 17.7169 18.118 19.1481 17.4581L18.7293 16.55C16.7828 17.4476 15.9942 19.7344 16.9401 21.6335L17.8352 21.1877ZM19.1513 17.4566L28.1028 13.2515L27.6776 12.3464L18.7261 16.5515L19.1513 17.4566ZM31.5225 17.641L32.9402 20.665L33.8456 20.2405L32.4279 17.2165L31.5225 17.641ZM32.9434 20.6717C33.1424 21.0803 33.505 21.4104 33.9419 21.5618L34.2692 20.6169C34.0896 20.5546 33.9288 20.4112 33.8424 20.2338L32.9434 20.6717ZM33.9419 21.5618L36.9801 22.6143L37.3074 21.6694L34.2692 20.6169L33.9419 21.5618ZM36.9801 22.6143C37.5815 22.8227 37.8925 23.4758 37.6859 24.0536L38.6275 24.3903C39.0253 23.2778 38.4232 22.0559 37.3074 21.6694L36.9801 22.6143ZM37.6859 24.0536C37.4779 24.6351 36.812 24.9561 36.2071 24.7465L35.8797 25.6914C36.992 26.0767 38.231 25.499 38.6275 24.3903L37.6859 24.0536ZM36.2071 24.7465L31.6498 23.1677L31.3224 24.1126L35.8797 25.6914L36.2071 24.7465ZM31.6498 23.1677C31.4702 23.1055 31.3094 22.962 31.223 22.7847L30.3239 23.2225C30.5229 23.6311 30.8856 23.9612 31.3224 24.1126L31.6498 23.1677ZM31.2245 22.7879L29.2427 18.643L28.3405 19.0744L30.3224 23.2193L31.2245 22.7879ZM28.5758 18.4077L23.2026 20.9787L23.6342 21.8807L29.0074 19.3097L28.5758 18.4077ZM23.2051 20.9775C22.4965 21.3118 22.2423 22.1326 22.5958 22.7986L23.4791 22.3297C23.3891 22.1601 23.4474 21.9689 23.6317 21.8819L23.2051 20.9775ZM22.5929 22.793L25.3085 28.0688L26.1977 27.6111L23.482 22.3353L22.5929 22.793ZM25.3128 28.0768C25.4405 28.3142 25.4569 28.5673 25.3739 28.7993L26.3155 29.136C26.496 28.6313 26.4522 28.0841 26.1934 27.6031L25.3128 28.0768ZM25.3735 28.8006L23.1691 35.0176L24.1116 35.3518L26.316 29.1347L25.3735 28.8006ZM9.59732 31.3639L34.5507 39.3661L34.8561 38.4139L9.90268 30.4117L9.59732 31.3639ZM34.5397 39.3625C35.386 39.6557 36.3629 39.4808 37.0143 38.8237L36.3041 38.1197C35.9492 38.4778 35.3857 38.5973 34.867 38.4176L34.5397 39.3625ZM37.0143 38.8237C37.3308 38.5044 37.5984 38.0617 37.6483 37.4789C37.6977 36.9021 37.5287 36.2492 37.0904 35.5131L36.2311 36.0247C36.5967 36.6387 36.6785 37.0833 36.652 37.3936C36.6259 37.6977 36.4908 37.9313 36.3041 38.1197L37.0143 38.8237ZM34.6136 24.2536L13.5225 16.5561L13.1797 17.4955L34.2708 25.1929L34.6136 24.2536Z" fill="#101C2D"/>
</svg>
