<svg width="48" height="48" viewBox="0 0 48 48" fill="none" xmlns="http://www.w3.org/2000/svg">
<path d="M14.1921 14.1832C16.9256 11.6187 20.5253 9.75045 25.2162 9.75045C25.2162 9.75045 42 9.44474 42 24.8206C42 24.8206 41.7694 33.4087 36.7691 37.5584C36.7691 37.5584 35.9873 38.2491 33.8781 38.2491H10.6317C10.6317 38.2491 9.57991 38.3057 8.40999 37.5414C8.40999 37.5414 5.65395 36.177 6.03642 31.031M6.26722 32.237C6.26722 32.237 8.83203 32.3389 13.866 31.7898M7.01506 35.1467C7.01506 35.1467 9.57987 35.2486 14.6139 34.6995M6.48638 28.3081C6.90823 26.5984 8.47749 21.0448 12.111 16.4592L12.5103 16.6347C12.5103 16.6347 16.7287 18.6727 23.152 17.4725C23.152 17.4725 27.8317 15.7742 29.0241 19.6521C29.0241 19.6521 30.4921 23.7112 25.6325 25.5624C25.6325 25.5624 17.4712 28.6081 6.73387 28.3138H6.48638V28.3081Z" stroke="#101C2D" stroke-miterlimit="10" stroke-linecap="round"/>
</svg>
