<svg width="48" height="48" viewBox="0 0 48 48" fill="none" xmlns="http://www.w3.org/2000/svg">
<path d="M38.0376 17.1822C35.673 11.8974 30.6468 8.25 24.8277 8.25V13.4058C27.8549 13.4058 30.5634 14.8728 32.3713 17.1832M30.7987 32.4279C29.1417 33.7871 27.0723 34.5942 24.8277 34.5942V39.75C31.0686 39.75 36.3975 35.5544 38.509 29.644M16.8006 32.4108C18.4613 33.7801 20.5382 34.5942 22.7931 34.5942V39.75C16.5522 39.75 11.2233 35.5544 9.11271 29.644M9.60849 17.1258C11.9834 11.8712 16.9946 8.25 22.7931 8.25V13.4058C19.7322 13.4058 16.9965 14.9061 15.1886 17.2608M11.3184 21.5152L10.4105 26.0183H16.0668M30.7987 21.5152H36.2147L36.9487 25.4465M30.5166 31.5775L31.9908 34.0813L36.9232 29.643H44.25L42.1263 24.8066L41.1291 25.8313L40.1319 20.4256L42.1263 17.1822H27.1796L23.9416 12.4314L20.7045 17.1258H5.8737L7.86713 20.3692L6.87089 25.7738L5.8737 24.7501L3.75 29.5865H13.3723L16.0668 34.0239L17.541 31.5211L30.5166 31.5775ZM20.7045 20.1395H27.2507L28.8439 26.6618H19.3924L20.7045 20.1395Z" stroke="#101C2D" stroke-miterlimit="10"/>
</svg>
