<svg width="48" height="48" viewBox="0 0 48 48" fill="none" xmlns="http://www.w3.org/2000/svg">
<path d="M30.7826 23.8703L23.3404 12.7027C22.8843 12.0719 22.0585 11.8328 21.3361 12.1211L12.8579 15.5124C11.988 15.86 11.5658 16.8469 11.9134 17.7168C12.2627 18.5866 13.2496 19.0088 14.1177 18.6612L20.9495 15.9278L23.2522 19.8414L16.88 23.8686M43.5 28.3129C42.7081 29.0301 41.628 29.8729 39.5983 29.8729C37.5686 29.8729 36.4885 29.0301 35.7 28.3163V28.3112C34.9115 27.5973 33.8314 26.7546 31.8017 26.7546C29.772 26.7546 28.6919 27.5973 27.9 28.3146C27.1081 29.0318 26.028 29.8746 23.9983 29.8746C21.9686 29.8746 20.8885 29.0318 20.1 28.318V28.3129C19.3115 27.599 18.2314 26.7563 16.2017 26.7563C14.172 26.7563 13.0919 27.599 12.3 28.3163C11.5081 29.0335 10.428 29.8763 8.3983 29.8763C6.36861 29.8763 5.28848 29.0335 4.5 28.3197M43.5 32.9929C42.7081 33.7101 41.628 34.5529 39.5983 34.5529C37.5686 34.5529 36.4885 33.7101 35.7 32.9963V32.9912C34.9115 32.2773 33.8314 31.4346 31.8017 31.4346C29.772 31.4346 28.6919 32.2773 27.9 32.9946C27.1081 33.7118 26.028 34.5546 23.9983 34.5546C21.9686 34.5546 20.8885 33.7118 20.1 32.998V32.9929C19.3115 32.279 18.2314 31.4363 16.2017 31.4363C14.172 31.4363 13.0919 32.279 12.3 32.9963C11.5081 33.7135 10.428 34.5563 8.3983 34.5563C6.36861 34.5563 5.28848 33.7135 4.5 32.9997M38.9217 17.0877C38.9217 19.4289 37.0238 21.3268 34.6826 21.3268C32.3414 21.3268 30.4435 19.4289 30.4435 17.0877C30.4435 14.7465 32.3414 12.8485 34.6826 12.8485C37.0238 12.8485 38.9217 14.7465 38.9217 17.0877Z" stroke="#101C2D" stroke-miterlimit="10" stroke-linecap="round"/>
</svg>
