<svg width="48" height="48" viewBox="0 0 48 48" fill="none" xmlns="http://www.w3.org/2000/svg">
<path d="M10.6885 27.4439C10.5423 27.2096 10.2339 27.1382 9.9996 27.2843C9.7653 27.4305 9.69384 27.7389 9.83999 27.9732L10.6885 27.4439ZM20.02 38.1601C20.2542 38.3064 20.5627 38.2352 20.709 38.001C20.8553 37.7668 20.784 37.4583 20.5498 37.312L20.02 38.1601ZM16.8178 31.4491L17.1689 31.0931L16.8178 31.4491ZM18.1896 24.5891C18.3379 24.3562 18.2692 24.0471 18.0362 23.8989C17.8032 23.7506 17.4942 23.8193 17.3459 24.0523L18.1896 24.5891ZM24.2773 30.7734C24.5074 30.6208 24.5703 30.3105 24.4177 30.0804C24.2651 29.8502 23.9548 29.7873 23.7246 29.94L24.2773 30.7734ZM27.9537 9.8464C27.7195 9.70011 27.4111 9.77138 27.2648 10.0056C27.1185 10.2398 27.1897 10.5482 27.424 10.6945L27.9537 9.8464ZM37.2853 20.5626C37.4315 20.7969 37.7399 20.8684 37.9742 20.7222C38.2085 20.5761 38.2799 20.2677 38.1338 20.0334L37.2853 20.5626ZM24.4977 17.3164C24.2617 17.4597 24.1865 17.7672 24.3297 18.0033C24.473 18.2393 24.7806 18.3145 25.0166 18.1712L24.4977 17.3164ZM31.419 16.9825L31.7701 16.6265L31.419 16.9825ZM30.4318 23.2031C30.2956 23.4433 30.3799 23.7485 30.6201 23.8847C30.8603 24.0209 31.1655 23.9366 31.3017 23.6964L30.4318 23.2031ZM12.102 37.8915L12.0015 38.3813L12.0019 38.3814L12.102 37.8915ZM25.3335 35.9223L25.5556 36.3702L25.5562 36.3699L25.3335 35.9223ZM35.9239 25.3247L35.4762 25.102L35.4761 25.1022L35.9239 25.3247ZM37.8917 12.0842L38.3818 11.9852L38.3816 11.9838L37.8917 12.0842ZM35.898 10.0891L35.9985 9.59926L35.9921 9.59802L35.898 10.0891ZM22.6665 12.0842L22.8892 12.5319L22.8894 12.5318L22.6665 12.0842ZM12.0761 22.6818L12.5238 22.9045L12.5239 22.9043L12.0761 22.6818ZM10.1083 35.9223L9.61814 36.0213L9.61897 36.0252L10.1083 35.9223ZM19.9344 27.3467C19.7373 27.5401 19.7342 27.8567 19.9276 28.0538C20.121 28.2509 20.4376 28.254 20.6347 28.0606L19.9344 27.3467ZM27.6484 21.1805C27.8455 20.9871 27.8485 20.6706 27.6552 20.4734C27.4618 20.2763 27.1452 20.2733 26.9481 20.4666L27.6484 21.1805ZM9.83999 27.9732C12.4178 32.1058 15.8902 35.5805 20.02 38.1601L20.5498 37.312C16.5491 34.8131 13.1857 31.4474 10.6885 27.4439L9.83999 27.9732ZM17.1689 31.0931C16.6358 30.5672 16.4086 29.7021 16.5746 28.5388C16.7397 27.3815 17.2875 26.0068 18.1896 24.5891L17.3459 24.0523C16.3924 25.5508 15.7755 27.0599 15.5846 28.3975C15.3946 29.7291 15.6203 30.9701 16.4667 31.805L17.1689 31.0931ZM23.7246 29.94C22.3077 30.8795 20.9261 31.4597 19.7584 31.6482C18.5841 31.8377 17.7063 31.6232 17.1689 31.0931L16.4667 31.805C17.3198 32.6465 18.5765 32.8519 19.9177 32.6354C21.2654 32.4179 22.7802 31.7661 24.2773 30.7734L23.7246 29.94ZM27.424 10.6945C31.4246 13.1935 34.788 16.5592 37.2853 20.5626L38.1338 20.0334C35.556 15.9008 32.0835 12.426 27.9537 9.8464L27.424 10.6945ZM25.0166 18.1712C26.342 17.3667 27.6132 16.8871 28.6837 16.754C29.7574 16.6205 30.5624 16.8398 31.0678 17.3384L31.7701 16.6265C30.9682 15.8354 29.8079 15.6065 28.5603 15.7616C27.3095 15.9171 25.9035 16.463 24.4977 17.3164L25.0166 18.1712ZM31.0678 17.3384C31.5609 17.8248 31.792 18.5991 31.6929 19.6357C31.594 20.6702 31.1683 21.9045 30.4318 23.2031L31.3017 23.6964C32.0843 22.3165 32.5722 20.9459 32.6884 19.7309C32.8044 18.5179 32.5521 17.3978 31.7701 16.6265L31.0678 17.3384ZM12.0019 38.3814C14.4855 38.8891 19.5771 39.335 25.5556 36.3702L25.1114 35.4743C19.3861 38.3136 14.5347 37.8785 12.2022 37.4016L12.0019 38.3814ZM25.5562 36.3699C30.2369 34.0412 34.0446 30.2309 36.3716 25.5472L35.4761 25.1022C33.2459 29.5909 29.5963 33.243 25.1108 35.4746L25.5562 36.3699ZM36.3715 25.5474C39.3349 19.59 38.8887 14.4948 38.3818 11.9852L37.4016 12.1832C37.8787 14.5449 38.3129 19.3995 35.4762 25.102L36.3715 25.5474ZM38.3816 11.9838C38.1343 10.7775 37.2045 9.84685 35.9985 9.5993L35.7974 10.5789C36.6111 10.7459 37.2349 11.3699 37.4019 12.1846L38.3816 11.9838ZM35.9921 9.59802C33.4886 9.1183 28.3974 8.67097 22.4436 11.6367L22.8894 12.5318C28.5876 9.69344 33.4394 10.1271 35.8039 10.5802L35.9921 9.59802ZM22.4438 11.6366C17.7631 13.9653 13.9554 17.7756 11.6284 22.4593L12.5239 22.9043C14.7541 18.4156 18.4037 14.7635 22.8892 12.5319L22.4438 11.6366ZM11.6285 22.4591C8.66505 28.4165 9.11125 33.5117 9.61816 36.0213L10.5984 35.8233C10.1213 33.4616 9.68715 28.607 12.5238 22.9045L11.6285 22.4591ZM9.61897 36.0252C9.86742 37.2062 10.7981 38.1343 12.0015 38.3813L12.2026 37.4017C11.3863 37.2342 10.7634 36.6076 10.5975 35.8193L9.61897 36.0252ZM20.6347 28.0606L27.6484 21.1805L26.9481 20.4666L19.9344 27.3467L20.6347 28.0606Z" fill="#101C2D"/>
</svg>
