<svg width="29" height="28" viewBox="0 0 29 28" fill="none" xmlns="http://www.w3.org/2000/svg">
<path fill-rule="evenodd" clip-rule="evenodd" d="M3.83362 14.0002C3.83362 8.20138 8.53451 3.50049 14.3334 3.50049C20.1322 3.50049 24.8331 8.20138 24.8331 14.0002C24.8331 19.7991 20.1322 24.5 14.3334 24.5C8.53451 24.5 3.83362 19.7991 3.83362 14.0002ZM14.3334 2.00049C7.70608 2.00049 2.33362 7.37295 2.33362 14.0002C2.33362 20.6275 7.70608 26 14.3334 26C20.9606 26 26.3331 20.6275 26.3331 14.0002C26.3331 7.37295 20.9606 2.00049 14.3334 2.00049ZM12.3646 6.8751C10.9083 6.8751 9.73987 8.04356 9.73987 9.49984C9.73987 10.9076 10.8286 12.043 12.2039 12.1224C12.3066 12.1121 12.4129 12.1122 12.5155 12.1227C13.8813 12.0542 14.9779 10.9141 14.9894 9.49716C14.9879 8.05329 13.8181 6.8751 12.3646 6.8751ZM8.23987 9.49984C8.23987 7.21513 10.0799 5.3751 12.3646 5.3751C14.6512 5.3751 16.4894 7.23011 16.4894 9.49984V9.5052H16.4893C16.4734 11.7305 14.7222 13.56 12.5041 13.6243C12.4566 13.6256 12.4091 13.6225 12.3623 13.6149L12.3581 13.6148L12.3539 13.6149C12.3052 13.6228 12.2559 13.6259 12.2066 13.6241C9.99856 13.5441 8.23987 11.7351 8.23987 9.49984ZM15.8437 6.1251C15.8437 5.71089 16.1795 5.3751 16.5937 5.3751C18.8806 5.3751 20.7193 7.22992 20.7193 9.49984V9.5052H20.7193C20.7034 11.7307 18.9516 13.56 16.7332 13.6243C16.6857 13.6256 16.6382 13.6225 16.5914 13.6149L16.5871 13.6148L16.5829 13.6149C16.1755 13.681 15.7909 13.4054 15.723 12.9979C15.655 12.5893 15.931 12.2029 16.3396 12.1348C16.4701 12.113 16.6105 12.109 16.7446 12.1227C18.1111 12.0542 19.2078 10.914 19.2193 9.49719C19.2179 8.05349 18.0479 6.8751 16.5937 6.8751C16.1795 6.8751 15.8437 6.53931 15.8437 6.1251ZM16.47 15.7109C15.3095 14.9971 13.8183 14.664 12.369 14.664C10.9195 14.664 9.42617 14.9972 8.26027 15.7098L8.25848 15.7109C7.21054 16.3554 6.55212 17.2962 6.55212 18.3625C6.55212 19.4285 7.21031 20.3692 8.25794 21.0137C9.42399 21.733 10.9148 22.0698 12.3642 22.0698C13.8137 22.0698 15.3045 21.733 16.4706 21.0137C17.5182 20.3692 18.1764 19.4285 18.1764 18.3625C18.1764 17.2962 17.5179 16.3554 16.47 15.7109ZM8.05212 18.3625C8.05212 17.9693 8.29303 17.4509 9.0434 16.9891C9.91886 16.4544 11.1237 16.164 12.369 16.164C13.615 16.164 14.816 16.4546 15.6842 16.9886C16.4353 17.4505 16.6764 17.9692 16.6764 18.3625C16.6764 18.7557 16.4353 19.2744 15.6842 19.7363L15.6833 19.7369C14.808 20.2769 13.6068 20.5698 12.3642 20.5698C11.1217 20.5698 9.9205 20.2769 9.04517 19.7369L9.04428 19.7363C8.29322 19.2744 8.05212 18.7557 8.05212 18.3625ZM19.3323 15.9574C19.5495 15.6047 20.0115 15.4949 20.3642 15.712C21.4115 16.3569 22.069 17.298 22.069 18.364C22.069 19.43 21.4115 20.371 20.3642 21.0159C20.0115 21.2331 19.5495 21.1232 19.3323 20.7705C19.1152 20.4178 19.225 19.9558 19.5777 19.7386C20.3278 19.2767 20.569 18.7579 20.569 18.364C20.569 17.97 20.3278 17.4512 19.5777 16.9893C19.225 16.7721 19.1152 16.3102 19.3323 15.9574Z" fill="#2F3A4C"/>
</svg>
