<svg width="24" height="24" viewBox="0 0 24 24" fill="none" xmlns="http://www.w3.org/2000/svg">
<path d="M0.75 8.25H23.25V15.75H0.75V8.25Z" fill="white"/>
<path d="M3.75 3H20.25C21.906 3 23.25 4.344 23.25 6V9H0.75V6C0.75 4.344 2.094 3 3.75 3Z" fill="#BE2A2C"/>
<path d="M20.25 21L3.75 21C2.094 21 0.75 19.656 0.75 18V15L23.25 15V18C23.25 19.656 21.906 21 20.25 21Z" fill="black"/>
<path opacity="0.15" d="M20.25 3H3.75C2.09325 3 0.75 4.34325 0.75 6V18C0.75 19.6567 2.09325 21 3.75 21H20.25C21.9067 21 23.25 19.6567 23.25 18V6C23.25 4.34325 21.9067 3 20.25 3ZM22.5 18C22.5 19.2405 21.4905 20.25 20.25 20.25H3.75C2.5095 20.25 1.5 19.2405 1.5 18V6C1.5 4.7595 2.5095 3.75 3.75 3.75H20.25C21.4905 3.75 22.5 4.7595 22.5 6V18Z" fill="black"/>
<path fill-rule="evenodd" clip-rule="evenodd" d="M13.875 13.7753C13.848 13.1138 13.7715 11.3355 13.743 10.6508C13.6455 9.86778 12.8947 10.6823 12.4665 10.6118C12.2347 10.2825 12.498 9.19503 11.8523 9.48453C11.703 9.45528 11.5597 9.41253 11.5222 9.54003C11.505 9.59928 11.508 9.67353 11.5335 9.65253C11.643 9.56253 11.7645 9.69078 11.7825 9.80028C11.829 10.0148 11.67 10.4423 11.526 10.6118C11.1008 10.677 10.353 9.87078 10.257 10.6508L10.125 13.7753L11.1375 12.87L10.9207 13.6388C10.8457 13.626 10.7768 13.5698 10.7108 13.6223C10.5923 13.6163 10.5382 13.7565 10.5787 13.8375C10.584 13.8263 10.5945 13.818 10.6065 13.8105C10.5893 13.833 10.578 13.8638 10.578 13.9035C10.476 13.8818 10.4528 14.034 10.377 14.034C10.4423 14.052 10.3927 14.1863 10.512 14.226C10.7107 14.6745 13.2848 14.6775 13.4858 14.226C13.605 14.1863 13.5562 14.052 13.6207 14.034C13.545 14.034 13.521 13.8818 13.4197 13.9035C13.4197 13.8638 13.4093 13.8338 13.392 13.8105C13.4048 13.8173 13.4145 13.8255 13.4197 13.8375C13.4602 13.7565 13.4062 13.6163 13.2877 13.6223C13.2217 13.5698 13.152 13.626 13.077 13.6388L12.8602 12.87C12.8602 12.87 13.872 13.7738 13.8735 13.7753H13.875Z" fill="#C09300"/>
<path fill-rule="evenodd" clip-rule="evenodd" d="M13.6381 14.0317C13.6321 14.0317 13.6268 14.0325 13.6223 14.034C13.6276 14.034 13.6328 14.034 13.6381 14.0317Z" fill="#C09300"/>
<path fill-rule="evenodd" clip-rule="evenodd" d="M10.3778 14.034C10.3733 14.0325 10.3681 14.0317 10.3621 14.0317C10.3673 14.0332 10.3733 14.034 10.3778 14.034Z" fill="#C09300"/>
<path opacity="0.2" d="M20.25 3.75H3.75C2.50725 3.75 1.5 4.75725 1.5 6V6.75C1.5 5.50725 2.50725 4.5 3.75 4.5H20.25C21.4928 4.5 22.5 5.50725 22.5 6.75V6C22.5 4.75725 21.4928 3.75 20.25 3.75Z" fill="white"/>
</svg>
