<svg width="29" height="28" viewBox="0 0 29 28" fill="none" xmlns="http://www.w3.org/2000/svg">
<path d="M23.8975 14C23.8975 19.098 19.7648 23.2308 14.6667 23.2308M23.8975 14C23.8975 8.90199 19.7648 4.76923 14.6667 4.76923M23.8975 14H26.6667M14.6667 23.2308C9.56873 23.2308 5.43598 19.098 5.43598 14M14.6667 23.2308V26M5.43598 14C5.43598 8.90199 9.56873 4.76923 14.6667 4.76923M5.43598 14H2.66675M14.6667 4.76923V2M17.436 14C17.436 15.5294 16.1962 16.7692 14.6667 16.7692C13.1373 16.7692 11.8975 15.5294 11.8975 14C11.8975 12.4706 13.1373 11.2308 14.6667 11.2308C16.1962 11.2308 17.436 12.4706 17.436 14Z" stroke="#2F3A4C" stroke-width="1.5" stroke-linecap="round" stroke-linejoin="round"/>
</svg>
