<svg width="28" height="28" viewBox="0 0 28 28" fill="none" xmlns="http://www.w3.org/2000/svg">
<path fill-rule="evenodd" clip-rule="evenodd" d="M12.2931 2.98432C13.3394 2.33856 14.6606 2.33856 15.7069 2.98432L23.9565 8.07571C24.9156 8.66766 25.4996 9.71429 25.4996 10.8414V22.2498C25.4996 24.0447 24.0445 25.4998 22.2496 25.4998H13.3553H5.75049C3.95556 25.4998 2.50049 24.0447 2.50049 22.2498V10.8414C2.50049 9.71429 3.08445 8.66766 4.04359 8.07571L12.2931 2.98432ZM16.4947 1.70785C14.9655 0.76405 13.0346 0.764049 11.5053 1.70785L3.25579 6.79924C1.85397 7.66441 1.00049 9.19409 1.00049 10.8414V22.2498C1.00049 24.8732 3.12714 26.9998 5.75049 26.9998H13.3553H22.2496C24.8729 26.9998 26.9996 24.8732 26.9996 22.2498V10.8414C26.9996 9.19409 26.1461 7.66441 24.7443 6.79924L16.4947 1.70785ZM11.2794 20.1502C10.8652 20.1502 10.5294 20.4859 10.5294 20.9002C10.5294 21.3144 10.8652 21.6502 11.2794 21.6502H16.1794C16.5936 21.6502 16.9294 21.3144 16.9294 20.9002C16.9294 20.4859 16.5936 20.1502 16.1794 20.1502H11.2794Z" fill="#2F3A4C"/>
</svg>
