<svg width="24" height="24" viewBox="0 0 24 24" fill="none" xmlns="http://www.w3.org/2000/svg">
<path fill-rule="evenodd" clip-rule="evenodd" d="M7 1.67993C5.32956 1.67993 3.87925 2.24002 2.84467 3.2746C1.81009 4.30919 1.25 5.7595 1.25 7.42993V13.4299C1.25 15.1004 1.81009 16.5507 2.84467 17.5853C3.87925 18.6198 5.32956 19.1799 7 19.1799H10.7733L15.034 22.014L12.9685 18.8385L12.969 18.8389L15.0346 22.0144C16.1897 22.7838 17.75 21.9626 17.75 20.5599V19.141C19.1042 18.9976 20.2789 18.4617 21.1553 17.5853C22.1899 16.5507 22.75 15.1004 22.75 13.4299V7.42993C22.75 5.7595 22.1899 4.30919 21.1553 3.2746C20.1207 2.24002 18.6704 1.67993 17 1.67993H7ZM3.68876 4.57223L7.22892 10.0146C7.71993 9.62949 8.4311 9.66318 8.88358 10.1157C9.37247 10.6046 9.37247 11.3954 8.88358 11.8843C8.79396 11.9739 8.69419 12.0471 8.588 12.1039L12.969 18.8389L15.8654 20.7655L15.866 20.7659C16.0309 20.8758 16.25 20.757 16.25 20.5599V18.4299C16.25 18.0157 16.5858 17.6799 17 17.6799C18.3296 17.6799 19.3793 17.24 20.0947 16.5246C20.8101 15.8092 21.25 14.7595 21.25 13.4299V7.42993C21.25 6.10037 20.8101 5.05068 20.0947 4.33526C19.3793 3.61985 18.3296 3.17993 17 3.17993H7C5.67044 3.17993 4.62075 3.61985 3.90533 4.33526C3.83002 4.41057 3.75777 4.48958 3.68876 4.57223ZM3.68874 4.57225L7.22883 10.0146C7.18936 10.0456 7.1513 10.0793 7.11492 10.1157L7.11221 10.1184C6.62924 10.6063 6.62893 11.3923 7.11129 11.8807L7.11492 11.8843L7.11585 11.8853C7.51508 12.2837 8.11514 12.3566 8.58787 12.104L12.9685 18.8385L11.4154 17.8055C11.2923 17.7236 11.1478 17.6799 11 17.6799H7C5.67044 17.6799 4.62075 17.24 3.90533 16.5246C3.18991 15.8092 2.75 14.7595 2.75 13.4299V7.42993C2.75 6.24033 3.10217 5.27478 3.68874 4.57225ZM3.68874 4.57225L3.68876 4.57223L2.84467 3.2746L3.68874 4.57225ZM11.1113 11.8807C10.6289 11.3923 10.6292 10.6063 11.1122 10.1184L11.1122 10.1184L11.1149 10.1157C11.6038 9.62678 12.3947 9.62678 12.8836 10.1157C13.3725 10.6046 13.3725 11.3954 12.8836 11.8843C12.395 12.3729 11.6048 12.3732 11.1158 11.8853L11.1149 11.8843L11.1113 11.8807ZM15.1122 10.1184C14.6292 10.6063 14.6289 11.3923 15.1113 11.8807L15.1149 11.8843L15.1158 11.8853C15.6048 12.3732 16.395 12.3729 16.8836 11.8843C17.3725 11.3954 17.3725 10.6046 16.8836 10.1157C16.3947 9.62678 15.6038 9.62678 15.1149 10.1157L15.1122 10.1184L15.1122 10.1184Z" fill="#101C2D"/>
</svg>
