<svg width="28" height="28" viewBox="0 0 28 28" fill="none" xmlns="http://www.w3.org/2000/svg">
<path fill-rule="evenodd" clip-rule="evenodd" d="M10.0833 8.16667C10.0833 5.99432 11.8276 4.25 14 4.25C16.1696 4.25 17.9152 6.00905 17.9167 8.16399C17.9002 10.2808 16.2549 11.9907 14.2 12.0815C14.064 12.066 13.9212 12.0659 13.7851 12.0811C11.7207 11.9745 10.0833 10.2741 10.0833 8.16667ZM14 2.75C10.9992 2.75 8.58333 5.16589 8.58333 8.16667C8.58333 11.103 10.8928 13.4778 13.792 13.5828C13.8423 13.5847 13.8927 13.5814 13.9424 13.5731C13.9693 13.5686 14.0126 13.5686 14.0395 13.5731C14.0874 13.5811 14.136 13.5844 14.1845 13.583C17.0936 13.4987 19.3957 11.0984 19.4166 8.17202L19.4167 8.17202V8.16667C19.4167 5.18587 17.0027 2.75 14 2.75ZM19.5271 16.9885C17.9783 16.0359 15.9719 15.5833 14.0066 15.5833C12.0411 15.5833 10.0313 16.036 8.47467 16.9874L8.47288 16.9885C7.08059 17.8447 6.25 19.0649 6.25 20.4106C6.25 21.7559 7.08023 22.9759 8.47199 23.8321C10.0288 24.7926 12.0351 25.25 14 25.25C15.9647 25.25 17.9708 24.7927 19.5276 23.8324C20.9196 22.9761 21.75 21.756 21.75 20.4106C21.75 19.0649 20.9194 17.8447 19.5271 16.9885ZM7.75 20.4106C7.75 19.7381 8.16304 18.9403 9.25778 18.2667C10.524 17.4931 12.2453 17.0833 14.0066 17.0833C15.7685 17.0833 17.4849 17.4934 18.7413 18.2662C19.8367 18.9399 20.25 19.7379 20.25 20.4106C20.25 21.0832 19.8367 21.8813 18.7413 22.555L18.7404 22.5555C17.4743 23.3366 15.7579 23.75 14 23.75C12.2421 23.75 10.5257 23.3366 9.25958 22.5555L9.25869 22.555C8.16327 21.8813 7.75 21.0832 7.75 20.4106Z" fill="#2F3A4C"/>
</svg>
